<mxfile host="app.diagrams.net" agent="Mozilla/5.0 (Windows NT 10.0; Win64; x64) AppleWebKit/537.36 (KHTML, like Gecko) Chrome/134.0.0.0 Safari/537.36" version="26.1.1">
  <diagram name="Page-1" id="mLibxhtTdMWoJkVIFUp0">
    <mxGraphModel dx="4456" dy="1940" grid="1" gridSize="10" guides="1" tooltips="1" connect="1" arrows="1" fold="1" page="1" pageScale="1" pageWidth="850" pageHeight="1100" math="0" shadow="0">
      <root>
        <mxCell id="0" />
        <mxCell id="1" parent="0" />
        <mxCell id="yI9EZNTHulhPJnTRhF_V-101" value="" style="rounded=0;whiteSpace=wrap;html=1;" vertex="1" parent="1">
          <mxGeometry x="555" y="60" width="1570" height="1220" as="geometry" />
        </mxCell>
        <mxCell id="yI9EZNTHulhPJnTRhF_V-60" value="&lt;h1 style=&quot;margin-top: 0px;&quot;&gt;&lt;font style=&quot;font-size: 29px;&quot;&gt;Stable Coin Architecture&lt;/font&gt;&lt;/h1&gt;" style="text;html=1;whiteSpace=wrap;overflow=hidden;rounded=0;shadow=1;glass=0;fontFamily=Verdana;" vertex="1" parent="1">
          <mxGeometry x="1138.75" y="90" width="402.5" height="70" as="geometry" />
        </mxCell>
        <mxCell id="yI9EZNTHulhPJnTRhF_V-73" style="edgeStyle=orthogonalEdgeStyle;rounded=0;orthogonalLoop=1;jettySize=auto;html=1;entryX=0.5;entryY=0;entryDx=0;entryDy=0;" edge="1" parent="1" source="yI9EZNTHulhPJnTRhF_V-65" target="yI9EZNTHulhPJnTRhF_V-67">
          <mxGeometry relative="1" as="geometry" />
        </mxCell>
        <mxCell id="yI9EZNTHulhPJnTRhF_V-74" value="Deposit Confirm" style="edgeLabel;html=1;align=center;verticalAlign=middle;resizable=0;points=[];" vertex="1" connectable="0" parent="yI9EZNTHulhPJnTRhF_V-73">
          <mxGeometry x="-0.1165" relative="1" as="geometry">
            <mxPoint as="offset" />
          </mxGeometry>
        </mxCell>
        <mxCell id="yI9EZNTHulhPJnTRhF_V-81" style="edgeStyle=orthogonalEdgeStyle;rounded=0;orthogonalLoop=1;jettySize=auto;html=1;entryX=0.5;entryY=0;entryDx=0;entryDy=0;" edge="1" parent="1" source="yI9EZNTHulhPJnTRhF_V-65" target="yI9EZNTHulhPJnTRhF_V-78">
          <mxGeometry relative="1" as="geometry" />
        </mxCell>
        <mxCell id="yI9EZNTHulhPJnTRhF_V-104" style="edgeStyle=orthogonalEdgeStyle;rounded=0;orthogonalLoop=1;jettySize=auto;html=1;" edge="1" parent="1" source="yI9EZNTHulhPJnTRhF_V-65" target="yI9EZNTHulhPJnTRhF_V-102">
          <mxGeometry relative="1" as="geometry" />
        </mxCell>
        <mxCell id="yI9EZNTHulhPJnTRhF_V-65" value="&lt;div&gt;&lt;font style=&quot;color: rgb(255, 255, 255);&quot;&gt;&lt;br&gt;&lt;/font&gt;&lt;/div&gt;&lt;div&gt;&lt;font style=&quot;color: rgb(255, 255, 255);&quot;&gt;&lt;br&gt;&lt;/font&gt;&lt;/div&gt;&lt;div&gt;&lt;font style=&quot;color: rgb(255, 255, 255);&quot;&gt;&lt;br&gt;&lt;/font&gt;&lt;/div&gt;&lt;div&gt;&lt;font style=&quot;color: rgb(255, 255, 255);&quot;&gt;&lt;br&gt;&lt;/font&gt;&lt;/div&gt;&lt;div&gt;&lt;font style=&quot;color: rgb(255, 255, 255);&quot;&gt;&lt;br&gt;&lt;/font&gt;&lt;/div&gt;&lt;div&gt;&lt;font style=&quot;color: rgb(255, 255, 255);&quot;&gt;&lt;br&gt;&lt;/font&gt;&lt;/div&gt;&lt;div&gt;&lt;font style=&quot;color: rgb(255, 255, 255);&quot;&gt;Fiat Reserves&lt;/font&gt;&lt;/div&gt;" style="whiteSpace=wrap;html=1;aspect=fixed;fillColor=light-dark(#000099, #ededed);gradientColor=none;strokeColor=none;shadow=1;" vertex="1" parent="1">
          <mxGeometry x="1140" y="301" width="170" height="170" as="geometry" />
        </mxCell>
        <mxCell id="yI9EZNTHulhPJnTRhF_V-66" value="" style="shape=mxgraph.signs.travel.bank;html=1;pointerEvents=1;fillColor=#FFFFFF;strokeColor=none;verticalLabelPosition=bottom;verticalAlign=top;align=center;" vertex="1" parent="1">
          <mxGeometry x="1175.5" y="321" width="99" height="86" as="geometry" />
        </mxCell>
        <mxCell id="yI9EZNTHulhPJnTRhF_V-71" style="edgeStyle=orthogonalEdgeStyle;rounded=0;orthogonalLoop=1;jettySize=auto;html=1;entryX=0;entryY=0.5;entryDx=0;entryDy=0;" edge="1" parent="1" source="yI9EZNTHulhPJnTRhF_V-70" target="yI9EZNTHulhPJnTRhF_V-65">
          <mxGeometry relative="1" as="geometry" />
        </mxCell>
        <mxCell id="yI9EZNTHulhPJnTRhF_V-83" style="edgeStyle=orthogonalEdgeStyle;rounded=0;orthogonalLoop=1;jettySize=auto;html=1;entryX=0;entryY=0.5;entryDx=0;entryDy=0;" edge="1" parent="1" source="yI9EZNTHulhPJnTRhF_V-70" target="yI9EZNTHulhPJnTRhF_V-67">
          <mxGeometry relative="1" as="geometry">
            <Array as="points">
              <mxPoint x="875" y="695" />
            </Array>
          </mxGeometry>
        </mxCell>
        <mxCell id="yI9EZNTHulhPJnTRhF_V-84" value="Associated Wallet" style="edgeLabel;html=1;align=center;verticalAlign=middle;resizable=0;points=[];" vertex="1" connectable="0" parent="yI9EZNTHulhPJnTRhF_V-83">
          <mxGeometry x="0.2853" relative="1" as="geometry">
            <mxPoint as="offset" />
          </mxGeometry>
        </mxCell>
        <mxCell id="yI9EZNTHulhPJnTRhF_V-100" style="edgeStyle=orthogonalEdgeStyle;rounded=0;orthogonalLoop=1;jettySize=auto;html=1;entryX=0;entryY=0.5;entryDx=0;entryDy=0;" edge="1" parent="1" source="yI9EZNTHulhPJnTRhF_V-70" target="yI9EZNTHulhPJnTRhF_V-98">
          <mxGeometry relative="1" as="geometry">
            <Array as="points">
              <mxPoint x="701" y="385" />
              <mxPoint x="701" y="980" />
            </Array>
          </mxGeometry>
        </mxCell>
        <mxCell id="yI9EZNTHulhPJnTRhF_V-70" value="Fiat Wallet" style="shape=image;html=1;verticalAlign=top;verticalLabelPosition=bottom;labelBackgroundColor=#ffffff;imageAspect=0;aspect=fixed;image=https://cdn1.iconfinder.com/data/icons/ionicons-sharp-vol-2/512/wallet-sharp-128.png" vertex="1" parent="1">
          <mxGeometry x="811" y="321" width="128" height="128" as="geometry" />
        </mxCell>
        <mxCell id="yI9EZNTHulhPJnTRhF_V-72" value="" style="group" vertex="1" connectable="0" parent="1">
          <mxGeometry x="1140" y="610" width="170" height="170" as="geometry" />
        </mxCell>
        <mxCell id="yI9EZNTHulhPJnTRhF_V-67" value="&lt;font style=&quot;color: rgb(255, 255, 255);&quot;&gt;&lt;br&gt;&lt;br&gt;&lt;br&gt;&lt;br&gt;&lt;br&gt;&lt;br&gt;&lt;br&gt;Issuing Service&lt;/font&gt;" style="whiteSpace=wrap;html=1;aspect=fixed;fillColor=light-dark(#000099, #ededed);gradientColor=none;strokeColor=none;shadow=1;" vertex="1" parent="yI9EZNTHulhPJnTRhF_V-72">
          <mxGeometry width="170" height="170" as="geometry" />
        </mxCell>
        <mxCell id="yI9EZNTHulhPJnTRhF_V-69" value="" style="outlineConnect=0;dashed=0;verticalLabelPosition=bottom;verticalAlign=top;align=center;html=1;shape=mxgraph.aws3.android;fillColor=#000000;gradientColor=none;strokeColor=#FFFFFF;" vertex="1" parent="yI9EZNTHulhPJnTRhF_V-72">
          <mxGeometry x="48.25" y="30" width="73.5" height="84" as="geometry" />
        </mxCell>
        <mxCell id="yI9EZNTHulhPJnTRhF_V-75" value="Update Merkle Tree" style="shape=cube;whiteSpace=wrap;html=1;boundedLbl=1;backgroundOutline=1;darkOpacity=0.05;darkOpacity2=0.1;" vertex="1" parent="1">
          <mxGeometry x="1425" y="655" width="120" height="80" as="geometry" />
        </mxCell>
        <mxCell id="yI9EZNTHulhPJnTRhF_V-76" value="" style="edgeStyle=orthogonalEdgeStyle;rounded=0;orthogonalLoop=1;jettySize=auto;html=1;" edge="1" parent="1" source="yI9EZNTHulhPJnTRhF_V-67" target="yI9EZNTHulhPJnTRhF_V-75">
          <mxGeometry relative="1" as="geometry" />
        </mxCell>
        <mxCell id="yI9EZNTHulhPJnTRhF_V-77" value="" style="group" vertex="1" connectable="0" parent="1">
          <mxGeometry x="1814" y="610" width="170" height="170" as="geometry" />
        </mxCell>
        <mxCell id="yI9EZNTHulhPJnTRhF_V-78" value="&lt;font style=&quot;color: rgb(255, 255, 255);&quot;&gt;&lt;br&gt;&lt;br&gt;&lt;br&gt;&lt;br&gt;&lt;br&gt;&lt;br&gt;&lt;br&gt;Auditor Armanino&lt;/font&gt;" style="whiteSpace=wrap;html=1;aspect=fixed;fillColor=light-dark(#000099, #ededed);gradientColor=none;strokeColor=none;shadow=1;" vertex="1" parent="yI9EZNTHulhPJnTRhF_V-77">
          <mxGeometry width="170" height="170" as="geometry" />
        </mxCell>
        <mxCell id="yI9EZNTHulhPJnTRhF_V-80" value="" style="sketch=0;pointerEvents=1;shadow=0;dashed=0;html=1;strokeColor=none;fillColor=#FFFFFF;labelPosition=center;verticalLabelPosition=bottom;verticalAlign=top;outlineConnect=0;align=center;shape=mxgraph.office.communications.watcher_node;" vertex="1" parent="yI9EZNTHulhPJnTRhF_V-77">
          <mxGeometry x="59" y="57" width="52" height="56" as="geometry" />
        </mxCell>
        <mxCell id="yI9EZNTHulhPJnTRhF_V-82" value="&lt;font style=&quot;font-size: 20px;&quot;&gt;Network&lt;/font&gt;" style="rounded=1;whiteSpace=wrap;html=1;fillColor=#000000;fontColor=#FFFFFF;" vertex="1" parent="1">
          <mxGeometry x="695" y="1110" width="1290" height="90" as="geometry" />
        </mxCell>
        <mxCell id="yI9EZNTHulhPJnTRhF_V-90" style="edgeStyle=orthogonalEdgeStyle;rounded=0;orthogonalLoop=1;jettySize=auto;html=1;" edge="1" parent="1" source="yI9EZNTHulhPJnTRhF_V-86" target="yI9EZNTHulhPJnTRhF_V-87">
          <mxGeometry relative="1" as="geometry" />
        </mxCell>
        <mxCell id="yI9EZNTHulhPJnTRhF_V-86" value="StableCoin Contract" style="shape=image;verticalLabelPosition=bottom;labelBackgroundColor=default;verticalAlign=top;aspect=fixed;imageAspect=0;image=data:image/png,iVBORw0KGgoAAAANSUhEUgAAAgAAAAIACAYAAAD0eNT6AAAAAXNSR0IArs4c6QAAIABJREFUeAHtnQfYNEWVth8yiIAoKlEQMSwmRFExK5gx64JZxBwW+Rd0dUERzKvuurq6hlVQ17SGNaOorAFBQRFUBBVRlJwRJBn+OTKDw3wz83b3OdVd1X33db3XvNPTXV1116k6T1dXn5LYIAABCCwnsImkO0t6rKR9JL1F0iGSPifpO5J+Juk3ki4Y//1B0l/46z2Di8b1fa6kkyQdObaJD0g6SNIzJT1A0s1H31dfbmL8CgEIQAACXRIwR7+LpL0lvVfS9yRdgiPvvSNvQ6xdJun7Y7t6saS7SlqrS2Pn2hCAAASGSsDuyO4o6fmjO7RDJZ2Mo8fRt2wDJgqOGI8W3EvSmkNtjJQbAhCAQGoCm4+G6veU9FFJ57Xc2bdxl8k1yn70cqGkT0h6mqQbpG4MpA8BCECg7wS2l/RKST/C4XOHX5ANXCHps5KeLOn6fW+klA8CEIBAFIFbS3q1pJ8W1OFz91723XvK+rtY0n+OJ6JGtRHSgQAEINAbAutLevpoEt+3cfrc6ffYBo6V9BQmEPam36IgEICAg8BtJL1r9Hqe3SWlvAsjbfjmZAO/lbSfpA0dbYdTIQABCBRJwGZN24SpP+L4ET4DtoHzR633QIRAkX0YmYYABGoQsFf3dh8F5DlhwB1+Tneh5CWfUZGzJb1E0to12hOHQgACEMiewGqSHiHphzh+7vaxgaU28PPR5NcnZN+iySAEIACBCgQezh3/0g6fu/B87sJzqouvSLplhfbFIRCAAASyI2CT+77A3R7OHxtobAOXj1q1zQ/gsUB23RsZggAE5hG48fidZyb3cWeb0x11yXk5bhz2el57Yx8EIACBLAjYs8tzuONrfMdXspMi72kF31WjFm6jAaxKmEVXRyYgAIEJgVtIOnxAjv9Xkg4bxXv/t/FiRLZkrC03vO0opsFNCf06MYvsPzeStLGkrSTtMFoaetdx6N5XSHqPpK9JOiszu/6qpM2yJ0sGIQCB3hOw2f326pKtitbnO8BTxsvAPonOt/c2Pa+AJuoeKOkASV/OIGjVmZLuPS+j7IMABCDQBoEtJNndSF8dv0Vqe72kv2sDJtcoisAaIyFwt1GObUj+eyNh8KcO2oE9Eti7KGpkFgIQ6AWBx0uyCGZ9c/42cfFjo/UIduFZay/stK1CbDkaFdhH0lGjlSv/3HK7OIS3BNqqZq4DgWETWGcct79vjt/upt4v6VbDrl5KH0DAXn99c8uTYb8xmo9yg4C8kwQEIACBuQTsLufolu9uTGj8IuE17W7NHP/Wc0vMTgg0J2BieU9JP05ov9NC3JbOxo6b1xdnQgACCwjcfzTb3WKVT3c4Kf+3ACiHStpZ0ucSXff40RyGeywoL7shEEXAJso+rCXx/BuiB0ZVG+lAAAJG4HmSrk7khGdFxAWjC9rEqk3G6A9KcF17Y8HeXFiT6oVAywR2k2RBfWbtPvK7vSFwu5bLxeUgAIGeEbCAI/+SuLOadHz2rvVLJW0wxfAxCSZU/WS0BPH2U9fgXwi0TcDa1bMSxxc4T9Id2i4Y14MABPpBYL3RXcQnW3D+F0myoCvXm8Fmr95dEnx9e9Y/e52Zy/IVAq0R2HAUhOhtCV8hNFF969ZKw4UgAIFeELDZxEcGO9/Jnf7k88px5zcZ6p8GZ0PzxwRe3x5f2B0XGwRyJHD3hBMFT5O0TY6FJk8QgEB+BMwh/yDQ+U4c/vSnhQxetsypjQhMH+/5/w+j8jwiP8zkCALXIWBvDPx7oN1Pt5mfS7rRda7GFwhAAAIzBCzc6QmJOiHrkGxy0tMk2azoRZsN/dsbANMdWNP/LyRc6iLM7M+UwKMk2UTYpja/6LxvS1o30zKTLQhAoGMC9o6/3Sks6kC8+99XIVCJDf0fG5QHc/62uAsbBEojcPPRa4PfD2oH0+3WIlwuE9+lcSK/EIBAAAFz/r9M0OFY52MTkaoOwVtc8+kOq+n/NoJwnwAuJAGBrgisneiRwP5dFYjrQgAC+RFI6fw/PfU+/0olt2VZzw0QABbL/9ErXYzfIVAIARPFkQsNWVoPKaTsZBMCEEhIIJXzt7j6Fminzmar7jW9458+7/l1LsqxECiAgC1BbW/NTNu5539bxMseM7BBAAIDJWDOP0WM/d9JumdNprassEXn83Rqdu7Ha16XwyFQCoEHjFYbvDigjUzamL1mu1YphSefEIBAHIFUd/420/gmDbL5gYCO7eSZKIINssEpEMiawE7BKwy+JuvSkjkIQCCcQCrn/2FJ9i5z3c3yY48MJncmTT5t0h8z/uuS5/gSCVh4XxvCb9JOZs+x+TL3LhECeYYABOoTSOH8bTldW7yn6etFrwvozA6oj4IzIFAsgbsGPg44hfDYxdoBGYdAZQJbJXjVz+4gnlk5B6seaHH5bdGS2TuTOt9t6L/JyMOquWEPBMohYHMCoiYGvrmcYpNTCECgLgG784+e8Gfx9Z9aNyMzxz/X6fxNKDx0Jk2+QmAoBJ4YtFqmCfm7DAUa5YTAkAikuPO3Z+5Vg/ssY/1jpwD4n2WJ8xsEBkDgtc42NBlts/U/1hgAL4oIgcEQSOH8bXGdBwUQvKOz47KAJrcNyAdJVCdgj1puLGlbSXeSdGdJ20vaerSy48bVk+HIQALmtI9wtqWJCHh2YL5ICgIQ6JBAKuf/wKAyee9cLMogWzoCm40eGz15tH7Dv0k6bLSI068qRKS7VNIPJVnM+VeOHNN9mZ+RroKmUra6spDbE0fe9PNsSRaRkw0CECiYQO7O39B6Fx7imWW8gRpTc/gnBjiTiROyEaOvjcI8v5AlaeMrbCpFE+YRIYPfNJUm/0IAAoURKMH52zv7EwfR5POrhdVJztm9wSgK436Sfuqskyr1aLPWbeSGWPRpLOKggDo0wbZ5muyRKgQgkJJACc7fyu8d/t89JcSBpG3P8q0eIsPLVhEBk2Ns0tljJa0+EN5tFNPmA3wnQAS8o43Mcg0IQCCOQCnO30p8tKOTukjSenHYBpeSLTP7ckn2vH7ijLv8PE7SPQZXC+kKfBtJVzjr1s63iZ1sEIBAAQRKcv4W/McTwOQ9BdRHrlm04DE/czqHFGLBokm+r8bS0bnyzSVf+wfUMaMAudQm+YDAEgIlOX8rxv2cndN9lrDgp/kEbNU3i/ZmjjaFA49K8/SxfcwvBXurErBRHouQ6akXW53zRlUvyHEQgED7BFJE+LPhv4cnLIrF7W/aMdnwP8FK6lWOCcQjHcyb1lXT8ywqna0tQT3Xq+fZo3cLqHMbSWCDAAQyJFDanf8E4ZcdHdPnJonwWYmABeqxd7ubOuMuz7Moj6zxUKmaFx70FWfdW2wBG01ggwAEMiJQqvM3hB6HtE9GdZB7VnaRdInTAXQpAOza35C0Ye6gM87fjgGPff4+4/KRNQgMjkDJzt86c49TsfDBbCsTsAWSvDPBPfUUee4xiICVK3zJERZ3wVMfxNxYApefINAmgZKdv3Gy+PFNOyMLUMI74ytb286jwD42gasp5xzP+zqPA1au+AVH3ME5CmDRBW++IG12QwACLREo3fkbpic4HNMJLXEu+TK2MM/5DsY5Ov9JnmxOAAKwmXV+0WkTNimTDQIQ6IhACueferb/PFQWgGbSodf9/MS8BNl3LYHrZ/qOf916XnY8s9Kvre5a/9zf0e6sPk6qdTUOhgAEwgikcP42nB61ql+dgloQn2Ud/LLfDq5zoQEe+xEH22XcZ38z4XiKJAvle6ykn0j6XUvXtlcEbYVBtvoELOLibF3W+W6PEtggAIEWCfTJ+Ru2jzs6oae3yL20S+3l4LqSE7BXwUy47SFp2yXD8OtL2knSP46XD746UZ4sWBABaupb6Auc9fGa+pfkDAhAoCmBvjl/4/AFRyf0yKYge37eTSRd4OC6SAAcPg4ItWZDfjeV9FJJZyTI23sb5mnIp23knBzKHJwhWw9lb5VAH52/Afw/hzOwOPZsqxI41MF0nvP/3ugO/u6rXqbxnnVH8Qj+X3BMApuZHpnHxoUr7MQPOW3FIo+yQQACCQn01fkbMntmPM/pVNlnw8ts1yVwT+crXtPc7dn+3kuG+K975frfbI15b2S66fzaHITV6mdj0Gd4wwM/a9D0KDwEEhPos/M3dJ6V6GyZU7brErAgLdNOsen/p0myqHGpN3uN75WBouXRqTPcs/QtrK/ncdEne8aD4kAgGwJ9d/4G+lSHw9omm5rKIyN3dbCcFgonSjLba3N7hqSISYIWJZCtHoFDHHZjYbwZdanHm6MhsCKBITh/g4AAWNEUKh/wGUdHPhEA9jrfZpWvGHugiYCI5YkfFJut3qe2u9NubtV7QhQQAi0SGIrzN6QIgBjDMqdt78RPHHmTzwslbReTncap2OOAJnmfPsciBLJVJ3BDp+3sWf1SHAkBCCwjMCTnbxwQAMusofpv+wY4zsdWv1yyI21OgHceg01e3DhZDvuZ8NEO++EVzH7aBKVqmUAK599FeN862BAAdWgtPvZ4Rwdud8/2Olgum71a9ntneZ6bS2EKycebHbztNVE2CEDAQSCF8+8qvG8dDAiAOrTmH3sLR+dtzv9iSZvOT7qzvfs5y/TlznJe5oUf4+BtK02yKFOZ9U6uMyAwVOdv6BEAfgO0d7Gnn4HX/f91/iyEp7CepDMd5bpUkr3ixlaNgEVprGs308ffstplOAoCEJgmMGTnbxwQANPW0Ox/z6I/9ojIQgfnuP2T0yndK8dCZZwnj+Ai/kLGFUvW8iQwdOdvtYIA8Nvmbx2OMudALt43G17hRzuoFDxRGS20MxsEIFCRAM7/GlAIgIoGs+CwDR3O34Zwc5j5v6Bof91tCxBNDzXX+f/DyxLmt1UIeCYCvn2V1NgBAQjMJZDC+ec+238uCEYAFmGpvN/WQ6jjFKePtbgBub8u9zJH+YgKWNmM/nrg8x2sP1/vUhwNgWESSOH8S5jtv6i2GQFYRKba/ic7Ou0fVrtEp0fZCn/ToqXO//Z2A1t1Ag9xsGZp4OqcOXKgBHD+q1Y8AmBVJnX2vNTRaZcwRO59xLFBHZgDP/bWDls6Y+DsKD4ElhLA+c/HgwCYz6Xq3oMcnfaBVS/S8XFnOcq4Rcd5L+nyHrF1JYsClVTV5LVNAimcf6nP/Ge5IwBmidT7/m8O57h3vUt1dvRJjjLaXS1bdQLmyOs8Zpk+1gQEGwQgMEUghfMv+Zn/FJq//osAmCVS77vFYZ/uhOv8bwGESthsMl+dck0fe5cSCphRHj2xALbOqBxkBQKdE8D5r1wFCICVGS074h0O5/jCZQln9JtNMJt26nX+3yGjcpSQFUZbSqgl8pg9AZx/tSpCAFTjtOio1zuco0XaK2H7taOMrFVfr4Y9i0rdod6lOBoC/SSA869erwiA6qzmHfnPDuf4znkJZrZvLUlXOcpoMe7ZqhP4voM1j1uqc+bInhLA+derWARAPV6zRz/P0WF/fTaxDL/bHXydIf/pY004sEpdvUr9joP3PepdiqMh0C8COP/69YkAqM9s+oxdHB32RZLWnE4sw/+f5ijf+ZLWybBMOWfp2w7e98y5YOQNAikJ4Pyb0UUANOM2OWtLR4dtd8t3nSSU6echzvJ9ARFQq2YRALVwcTAEJJx/cytAADRnZ2euJun3Dif5Rt/lk569tqTzHGWbPA5ABFSvJgRAdVYcCQGcv9MGEABOgJK+4XCSv5O0hj8LSVJ4jKNcE+c/+UQEVKsiBEA1ThwFgSTOvy8R/qqaBwKgKqnFxx3gdJR7LE6601++5SzXxPlPPr8sad1OS5T/xREA+dcROcyAAMP+MZWAAPBztMlXEyfX5NMC7eQ2CvAAZ5kWcWAkYLm9IQCW8+FXCCS58+9TeN86JoIAqENr/rH2rrzNeF/k9Krsf8H8pDvZa28meKL/rVReRMDiakUALGbDLxDA+QfbAAIgBui7nALgQl0zmTUmN75ULELhSk7c+zsiYH4dIQDmc2EvBJI4/6E98581IwTALJFm33cOcJpHS7LRhC43ey3RsyJdHWHAnIBVaxoBsCoT9kAgifMf6rD/tDkhAKZp+P73LOQycZzv73Bd920leVajm5ShzicjAde1OQTAdXnwDQI4/4Q2gACIg7tXwCiAOc+3diACLKDRz4PyX0cA2LGIgL/ZIALgbyz4DwI4/8Q2gACIA2yBc04LcqI2EtDW44DbBua7rvOfHI8IuMYOEQBx7ZGUCifAq37pKxABEMv4RUECwBzjdyVtHZu9VVJ7ijOS4cSBR3wiAiQEwComyo4hEkjh/Ic+4W+eHSEA5lFpvi/6FTpbMGjvBHECtpD0wUCxEiEALI2hTwxEADRve5zZEwIpnD8T/uYbBwJgPhfP3vtJ+nOwc/2pJLtb964euLmkf5V0WXD+ogSApTPkkQAEgKflcW7xBHD+7VYhAiAN71R312dIerMkW/u9qhjYRJKFG/6cpKsSOP5osTNkEYAASNMeSbUAAjj/9isJAZCG+UaSTkngbKfvtC+R9H+S3j1y7K8YRSN8saTnSNp39MjgYEkfl/TjBKMR03mw/18raf8EZR3iSAACIE17JNXMCaRy/rtmXu6us4cASFcDd5Fk805mHWafvpsAmYxEvDRBWYc2JwABkK49knKmBFI5/wdmWt6csoUASFsbz0/gFHMREKePRh82m8HHSMAMkJpfEQA1gXF42QRSOX/u/KvZBQKgGifPUa/roQiwtxN2WACFkYAFYCrsRgBUgMQh/SCA8+++HhEA6etgNUnv7ZEIsDdq7r0CNkTACoAW/IwAWACG3f0ikMr5M+xfz04QAPV4NT16DUnv64EIsImHu1SEwOOAiqCmDkMATMHg334SSOX8Gfavby8IgPrMmp5hIwEHFiwCzpN095qF3y9Befs8MRABUNPAOLwsAqmcP3f+zewAAdCMm+csmxhY2tsBJ0jarmGhU4wEfFHSOg3zk/NpCICca4e8uQikcv7c+TevFgRAc3aeM3eU9IsEd8cp3hCwoEbrewo7ijzISEA1gAiAapw4qjACqZw/d/4+Q0AA+Ph5zrZgQYe2EKjHIwqOC1yVkJGAla0FAbAyI44ojEAq58+dv98QEAB+ht4UbEa9DbF7HHXKcz8VKAJSjAQcJmldbyVkcj4CIJOKIBsxBFI5f+78Y+oHARDD0ZvKWpJsbsCvMxUCnwwUAf+coIx9mROAAPC2JM7PhgDOP5uqWJgRBMBCNJ38YEJgT0knJnCS3lECREB6k0AApGfMFVogkMr5M+wfW3kIgFiekanddjS0/YbRyMDZGYkBHgdE1vCqaSEAVmXCnsIIpHL+DPvHGwICIJ5pdIoWROhukl4u6XBJF3csCBgJiK7hv6WHAPgbC/4rkADOv6xKQwCUVV+T3NoiPPeT9CxJL5Nk6w38+3hp4LeNRw72kbSHpDcnEAyIgElNxH4iAGJ5klqLBFI5f4b901UiAiAd25xSPiiBCOBxQHwNIwDimZJiCwRSOX+G/dNWHgIgLd+cUn9NAhFQwkjALSRtW8jfMY46umdOxkZehkMglfPnzj+9DSEA0jPO6QpDHAnwvv1QyvkIgJxa2kDygvMvu6IRAGXXX5PcIwLyDbrkERsIgCatgXMaE8D5N0aXzYkIgGyqotWMIAL6JwIQAK02oWFfDOffj/pHAPSjHpuUAhHQLxGAAGjSCjinNgGcf21k2Z6AAMi2alrJGCKgPyIAAdBKkxn2RXD+/ap/BEC/6rNJaRAB/RABCIAm1s85lQng/CujKuZABEAxVZU0o4iA8kUAAiBpExl24jj/ftY/AqCf9dqkVIiAskUAAqCJ1XPOigRw/isiKvYABECxVZck47mLgH0dgXI8r9iVcC4CIEmTGHaiOP9+1z8CoN/126R0iIAyRwIQAE2snXMWEsD5L0TTmx8QAL2pytCCIALKEwEIgNAmMOzEcP7DqH8EwDDquUkpEQFliQAEQBMr55xVCJjzPyX4WdsfJLGwzyqoO9+BAOi8CrLOQO4LCNlSyH8O7qtKeN4/L48IgKybUhmZw/mXUU9RuUQARJHsbzq5i4DHSToDESAEQH/bYCslw/m3gjmriyAAsqqObDOTuwhYX9IzJX1C0tHjEUwbxSzt73KHkEEAZNt88s8Yz/zzr6MUOUQApKDazzRznxPQB+rfQQD0oRrLKgPOv6z6iswtAiCSZv/TQgSkrWMEQFq+pD5DAOc/A2RgXxEAA6vwgOIiAgIgLkgCAbAADLvjCeD845mWliICoLQayyO/iIA09YAASMOVVGcI4PxngAz0KwJgoBUfUGxEQADEmSQQADNA+BpPwJw/7/nHcy0xRQRAibWWT55zfzsgH1LVcoIAqMaJoxoS4M6/IbienvY7x6zjLXrKhGLVI8BIQD1ey45GACyjw28uAjh/F75ennyuQwBs0ksiFKoJAURAE2qrnoMAWJUJewII4PwDIPYwiUscAmDDHvKgSM0JIAKas5uciQCYkOAzjMDNeOYfxrJPCa0m6WqHAFi3TzAoSwgB5gT4MCIAfPw4e4YAd/4zQPh6LYGNHc7/imtT4R8IXJcAIwHX5VHnGwKgDi2OXUqAO/+leAb/4y0cAsAWX2GDwCICKUYCviip74+dEACLLIr9tQjg/GvhGuTBOzsEwAmDJEah6xBIIQJOk/R8STeuk5GCjkUAFFRZuWYV559rzeSVrz0cAuCIvIpCbjIlkEIE/GVst2cVuNrfSqsTshpgpoZcSrZ45l9KTXWfz5c7BMCHu88+OSiEQIo5ARMRwKc0YcBywIU0iFTZTHXnv2uqDJNupwTe4xAAB3eacy5eGoGUIwETBzj0TwRAaa0iML/c+QfCHEhS33UIgGcOhBHFjCPASMDf7tZTiBUEQJytFpUSd/5FVVcWmbUYABc7BMADsigFmSiNACMB6UQAAqC01hCQX5x/AMQBJnFzh/O3u5fNB8iMIscQQASkEQEIgBj7LCYVhv2LqarsMvpEhwCw9QPYIOAhwOOAeBGAAPBYZGHn4vwLq7DMsvsOhwD4emZlITtlEkAExIoABECZ7aB2rhn2r42ME2YIHOcQAG+bSYuvEGhKgMcBcSIAAdDUCgs6jzv/gior06zaMr5/cgiAJ2VaLrJVJoG9nfaYYkZ9iWkiAMq0/8q55s6/MioOXELAHLing9tmSdr8BIEmBJ7gfCvFY899ORcB0MTyCjkH519IRRWQzQ85BMDvCigfWSyTwHaSvu2wzb448qblQACUafcr5hrnvyIiDqhIYC1J5zs62Y9VvA6HQaAJAYtP8VRJpzpstKkDLf08BEATi8v8HJx/5hVUWPYe5uxYiQBYWIUXmt01JT1F0jeZH1D5cR0CoFBjX5RtnP8iMuxvSuAQhwD4s6Qtml6Y8yDQkIBNfN5Lkj26smWoPSvmlX6Xvyz/CICGBpbjaTj/HGul7DxdX9IlDgHwo7KLT+57QmB1SRtL2lrStj37O8bRPhEAPTFwnH9PKjKzYthd1LI7iJV+e11m5SE7EOgbAc8kSARAD6wB59+DSsy0CJ7V/0wc7JBpucgWBPpCAAHQl5psUA6C/DSAximVCNzFefd/UqWrcBAEIOAhgADw0Cv4XJx/wZVXQNY/4RQAry6gjGQRAqUTQACUXoMN8s+wfwNonFKZgE2U+qNDANjs/9tUvhoHQgACTQkgAJqSK/Q87vwLrbiCsv1+h/O3Z//fKqisZBUCJRNAAJRcezXzjvOvCYzDaxOw8KpXOwXA02pflRMgAIEmBBAATagVeA7D/gVWWoFZ/m+n879Q0vUKLDdZhkCJBBAAJdZazTxz518TGIc3InB3Sfb8fqX3+5f9/oZGV+YkCECgCQEEQBNqBZ3DnX9BlVVwVm1RlaOczv9KQv8WbAHLs272cTtJzx6N8LxpNMnTFnk6XNKRko5t+e97kj4v6a2S7rs82+5fNxgtNPR0SYdK+nrL5azC9feONksgILd5pE0A55+WL6n/jcCejo5kMiJgnSRbvwjcR9J7JJ0bYB8TO4n+/I6kWyfAbo7/nIzL7eWIAEhgNFFJ4vyjSJLOSgRu6lzy1zqiP0m67UoX4vciCNjd/hMk/bAg52dzT+4WSPfggsreVAggAAINJjIpnH8kTdJaiYAN5zbtRCbnfWSli/B7EQRuL8nzXHliD118niFpkwDKewS0hy7KX/eaCIAAY4lOAucfTZT0lhF4akBnZ0GDbrXsIvxWBIEXS7oiwB7qOqLI421egGdbd7SU8G8LZ1CVJwLAYykJzsX5J4BKkgsJWLQ+zySiSUdjgYPYyiWw1niS26Q+S/48T9Kajqp45ECcv9UxAsBhKNGn4vyjiZLeMgLrSTohoLO7lJn/yzBn/5vd8X4hwA5yEg2eVSjf0jMWy+oFAZBJ88T5Z1IRA8rG+4I6uv0HxKxvRTXnf1iQHSxzNG3/9jBHRXkDYbVdVs/1EAAOQ4k6dQtJpwQ3wj9I2jUqg6TTOwJPCbK3UyXZSAJbeQT66vzNId7bUR3vDmobHsfc1rkIAIehRJx6E0knBhsczj+iZvqbhkX7MxuJ6GQe0V9MvS5Zn52/vY5q/WrT7SVBbSOifaVOAwHQ1EoCzttY0nHBxobzD6iYHidhy/yeHWRzH+8xpz4Xrc/O3xzmN52Vd/NxTIvUzjeH9BEATmNpevr1JR0d1BFPDAnn37Q2hnGeBfs5OcjmLpC06TCw9aqUfXf+1hfuElBjhwS1k0nfnOsnAiDAWOomscY4jnWkUeD869bCsI6/oaTjAzs1ix3AVhaBITh/bwyASY3a6OzPA9tLZF8fmRYCYFLjLX6+PdiwcP4tVl6Bl7LOzBZPieo4Plogg6Fnue/O31awtAWK7OYqattS0g8C201U+4tMBwEQZS0V04meYILzrwh+oIfZZKjIeSa/lnSDgbIstdh9dv4WtdBWBdw5UeVYgKQXBsXt958nAAAgAElEQVTLiHTcUWkhABIZzrxkdwueXILzn0eZfRMCFlviZ4F3MFcROWyCtpjPVM7fJpL+q6THjW3iziNH3Pbf37X8CqqJaQsw1HY5V7qeR+AjAFpqyttJstWqopQbzr+liiv0MjuO1m0/PdDezG73LpTFULOdyvn/hySbxMyWBwHPwk0IgBbq8HrBE7Bw/i1UWsGXeFRQfP9psWrR0djKIZDK+b+0HASDySkCIPOq/nDgnRjOP/PK7jB79rzS4pjbhKhp5+3939aEX7/DcnHpegRSOf/96mWDo1sigABoCXSTyzw7sDO+cjSb+6FNMsE5vSewdYK4EiYcTpO0ee/p9aeAOP/+1GXVkiAAqpJq+bhbSLokSADYeuu7t5x/LlcGAVu+9PwgO5seLTDbvWMZCMilpHUSrer3CuhmTQABkGH12HrUUe9eW2zrp2VYRrLULYENJL0jwZC/iYDLgyKqdUtoOFe3O/+vJBCBDPvnb0MIgAzr6KDAxsjEmwwruOMs2XKnvwm0sek7fxttenzH5ePy1Qlw51+dVR+PRABkVqv2CtbVQZ3zezMrG9nploC9Tvq/QbY17fQn/9to0xO7LSJXr0GAO/8asHp6KAIgo4q1of+o8JGHS7KZ3WwQsFj+FurUIp9NnHX0p4nWp4C6GAI4/2KqKmlGEQBJ8dZLfN+gDvqXhFytB76nR280KteBki4OsqtFosGExaN7yrCPxcL597FWm5UJAdCMW/hZto70ZQEdtb3rbyEn2YZLYItRmNM3SroowJ4WOf3J/kslPWi4qIsrOc6/uCpLmmEEQFK81RP/XFBnvWf1S3JkjwisJuk+kj4kyWI+TBx0ys8zxrHNe4Sx10XB+fe6ehsVDgHQCFvsSbsEddj/FZstUiuAgMWLsHetTw6yoaqC4ceSbMEgtm4IbDZeTMfq/lBJR0k6RdI5UyOJtgDTBaO5GfZI8FvBKztO7CTyVT8TsTuN3lCxm5iX8dcKg1Md/QZrAQS0fVuD+nhHJUwaojVyFtkIqJDMk7BO0h7x/JOkYwLsZmI/dT4/O1rNzeYXsLVHwCYIP1ySLaZzYkf1Pmsjkc7/qaN4Jb/KpFyz5eT7/BFFBEBA+48I92vvXt8rIC8kkR8Bc/jbS3rO+E7Pht276pDsNb/9JVme2NohcIfx0rlndVjv8+wtyvmvPbbreddgX3dtvQp7BICzD7CV/s4MaNg24YutbALWEdp7+g8c2cRzx3d63wxeBrpKo150jK3h/uCyEReVe+tcv5goUuOiOq66P9L5p4xLUbU8HNdMaCAAnF3K/wtw/ieN43g7s7LwdHtEYW8omGPaazSz/CXjZ85vGIeStXkHn+CvFoNPSbI4DUdKsvo7N9OOftIxflnSpgsthB8iCdxe0tcD+oVJ3UV/4vybOcvoesghPQSAo+Xb3X/EsN4DHHmYPfVGkmxxGBtR+NJ4YllbM8pzMGjycN3OzV4p3Zsh/9lmkuS7zd95c2AU0BS2jPO/bvtIwbikNBEAjq4gIujPhx3Xt1NtIteTRku2vkfSTzO/Cy2pYfQhr9+QdEunfXF6NQL3SLg2Q5Qt2iiVzUfwbvaoi2H/fggJBEDD1rCeJHum6mmcF0q6aYPrm9O3GbcWdyBlaFhP2TjXZxsefvbamD3qYaJfg8ZV8xRjbIt1Ra394an3KufaiNCzapZx+nCcf3ftukr91j0GATBt3TX+j5j5X2eVP+todh2tz/4ZnL5LdNVtICUdb07IXjGzx0Bs6QlYUB6bC1KSjUzyaouM2WuJdTacf5l1PanzeZ8IgDotYHysOWMbbp8HtOq+0yRZB7LSZiMNptgtaEvVtDlueKy+OnJGNvmMrR0CG0o6ovA2acP41r9U2XD+/exTEABVrH/mmIcENPynz6Q5+9U6mFePZ5fj0PvZ+CLq1cKA3m/WePielICtzPjDgD4gov69adhrquuvQAvn39/+BwGwgvHP+/kwZ+O3u/nV5yU8Xv73heNwoN7Gzfn9bbjWcfNO/4JGlHC3vfnzXWf7z61d2iuii5Ydx/n3tw8xO0QA1Ows7H16i6bmacR7LLjmI0Yz+n/uTNuTL8711WtqfmZ3n5e08wL7YXdaAuYkLbBP6nruIv2PzLkpMedvc466yA/XbIc7AqBmn/EaZ4MwB2+Beaa3rSXZM1yMHgbzbOC3o875IEnbTBsN/7dO4N973kZtUaLJxp3/MPoiBMDE4it8muO2znheJ1113zOnrmOTCS0+/MXONKtem+N8ddcmv8vGkRl3myMYp0yIf1si8NgBtFFbj+S+knD+5fQT3j4JAVCjA3mYsxM4fdy47JK2DCt3/cNpaFUa6qWjQC2fHoUWtkdEK03MqmG2HOokYI/9LGZHlTpscoytAmqBvJ4h6W6SbjI1O9/swGKFWEdtsR0+IMneIGpynSrn2EJVX0iQvgU8s9Dj/MUz8NyUIgBqdA4fczaMV42vZZO3LFhLlQbJMf3l9Ofx66RvGa/TsE4NW+TQ9gh4J/3Oa8O/l2SPFO7coBg2cmgdt73Lf3kB/ciBDcrIKdUJ2JtA82ysyj4EQEXO9r6sNdoqUOcdc9VI5W8+jhpmQ23zjmFfv7nYXaTN3rd1Gmy9BgL2VGx8HR72+OC2ag7b5hFF1f1mkt6WcSRCnH9640UApGcs7zNAG1b7aHBngmDITzBYqFVbHdBerXrXWPA9fPzIpwUz5RKBBGxxH8/w6mz7/L/xctGBWbw2KYvxf0xm/QvO/9rqSfoPAiAp3msSt9dkZht0ne9dD9XZqMMpY8f0zvGzuJePHkX8w+iZok1MfAJ/tRjYnaGFZra/O0naSpK9I87WHwK2cl6dNr7oWHvUY0G9Zt/+iSZlj5ByeVMB5x9du4vTQwAsZhPyi4XsvSSoM1jUSUTvP3XklP5L0lMk3U4Sz5dDTIFEBkLA2vyZAW3e1md4WsvMXhIQq8TTH+H8261wBEBi3g8M6Ag8DarKuXaXYc+X7bVCm7XMBgEINCdg0TirtLtlx1jgpr9vngXXmc8LyP+ysi36DefvqrZGJyMAGmGrftK/dNSYFjWy6f2/GKn9AwgSU70yORICFQh4F/uyNvriCtdJeYg9dpjuK1L/j/NPWZuL00YALGYT8kuOK/H9aDy0mPq5YghAEoFAQQR2CnCcH8+gvLbeyFcCylJFONj7/WzdEEAAJORur+7Z8HqVRtDGMUdKstUI2SAAgTQEvBPpfifJVvPMYds0cRAj6/O48++2phEACfk/NRPnf9ZoFr/lxYKAsEEAAmkIWPvyTv6zN2py2iLmMyy6ucH5N6vpLSTdR/rr6+U2UdvmbjX9s8fAi+pnpf0EAlqh/uyVuZUgpvzdXt97h6QbrJBPfoYABPwEbuts7/Yufm7bmuNXgKP7KZx/9ZrecrTmyz7jMMsXOW0ssh4RACvU4XEdVpYFIbnXCvnjZwhAII7Ai5zt3QKG5bjZ3WWk48D5V6vlB43XfPEuIR9Zd9NpIQCW1KNFAusqbK9FDtxkSd74CQIQiCfwSYejtEcHdred42aLCnlCmU87DZz/yjVsazwc5bClad4p/0cALKnLB3RQgaYUX8qz/iW1wk8QSEfgZEeb/9d02QpJ+YOOsk2cEM5/eVWsNVrJ014b7+rGcVJPVT8RAEvqc9+ABlO1Iuy4KzoMHLIEAz9BYBAErPO2yH112uz0sTbcm/P2JEfZrJw4/+W1awszHe1kPG1PbfyPAFhSp4e0WJkXS9plSV74CQIQSEvgNo72bqt92jB7zps5KI9TuWnOhes4b9slmmjpqa8q5yIAlhjOsc4GU6UC7JjzJe24JB/8BAEIpCfwYEd7txUgS9jOcZSRPmp+Dd969ArfGQ6uVf1EiuMQAPPr9K8rd13WQqXaNXZekAd2QwAC7RGw9/ebdrKfbS+brit9x1HGh7mu3M+TS3b+ZusIgAV2eUtHQ6naidiwIY1qQQWwGwItE7Blsau23dnjbOXNErbPOMqYW4CjrnmX7vwRAEssyDMcONs5zPtu4YUtsh8bBCCQB4F/cDjHt+VRhBVz4XkT4Okrpj6cA/rg/BEAS+w1OnDGrAj4tyXX5icIQKB9ArZ632w7rfrd1g8oYftvRxntLQI26VaSTndwrGpTbRzHI4AFFv3ahBX8fUlrL7guuyEAgW4IPMPR5j/QTZZrX/VzjjI+ovbV+ndCn5y/CQwEwAIb/bCjoSxTbhdIuvmCa7IbAhDojoCF8V3Wdpf9dlh32a51ZVurYFk5lv12v1pX6t/BfRn2n65jBMACO/2mo6FMA579/8kLrsduCECgWwIWh2O2vVb9fmq3Wa90dVvp0OKNVC3T7HE7VLpKPw/qo/O3+kUALLDXnzoaymzDmXz/+oJrsRsCEOiegI3MTdpq3U8L4X2j7ouwNAcWrKZuuaaP33Bp6v39MZXzt6iT35Vk8zLe7fjzLF+NAFhgtx6o041m8r+F+bVIY2wQgECeBFaXdLnDST4uz2Jdm6vnOspmgW6GuKVw/vb6t80xu2EQUE9sBwTAnEqwoTKrpInzjvh8zZzrsAsCEMiLwAmOdm+hw3PePu8o2xE5FyxR3lI4f3sEc//g/CIAgoHaUFeE05+kYaF+NwjOI8lBAALxBA51tP1LMl4P4CbOm5q3xqPOOsVUzv/uCUqNAAiGupWjE5g4/enPVwXnj+QgAIE0BDyvAlqbf36abLlTPcDZp+3mzkE5CZTk/I0qAiDYtryTZaadvw35bBycP5KDAATSELiZ01Ha2wC2rHBOm40+nucol01WG8oEwNKcv9kZAiC4tW3vaCzTzt/+f31w3kgOAhBIS+BkZ/vfN232aqf+Rmd5zMEMYSvR+Vu9IACCrdPed5115E2+W7z/bYLzRnIQgEBaAgc62//vJW2dNouVU7+989m/9Xsvqny1cg8s1fkbcQRAsN3dzdkBTMTCEGfOBlcFyUGgdQIWD8DE+6QdN/n8XgbhvteX5I1nYm9DbdJ6DbR7wRThfe3Rb4oJf/PIIADmUXHsu4ez8U86DJtQxAYBCJRH4NsBfcB/dlhsi2nwiYAy/G+HZWjj0nbnH72wT5vO3xghAIItJUIAXMqrf8G1QnIQaI+ABfWZCHnP50HtZfnaK1kck/8Iyn+f4/+ncP4XtXjnP6lwBMCERNBnhAD4bFBeSAYCEGifgDnRHwc5UVsq2O7I29jWkPTeoHxbmNq+bqUP+0/XCwJgmkbA/xECYO+AfJAEBCDQHYGnBDlSG0GwKHyp1wrYYhRlLnIRs4d0hz7plfty5z+BhACYkAj6jBAANvuWDQIQKJeA3U3/IFAE/FbSoxPgsNGKp0o6JzCvhyfIZw5JluT8rz+OIWNxZJb9He2od9YCmGOVXgFwliRrlGwQgEDZBOyNIFvpzzMPYPbcwyTtHITFljD23AHO5s2+XynJHGXfttydv/mM3SV9WZK9SjqvbqL3IQDmWLlXAHx6TprsggAEyiRgS7VGd7yWnr1p8KwGkUItrr+9m39sonzZSnV923J3/pslEHJVbBYBMMfSvQKgjw1oDiZ2QWAQBDaS9MtEztY66T9KOmYkBN4m6XmS7Nm7vUN+5/FIwUMlvXA8s/9HATEKljmG4ySt27Nazd35W9yJXye0r2X1jQCYY+xeAWDP49ggAIH+ELiDpMs76qSXdeCRv9mw8236U2V/LUnus/0tYuSvOrQrBMAcg/cKgJ3mpMkuCECgbAJ2Fx7pcHNKyyIf2vPnPm0l3Pn/pmObQgDMsXivABjKyllz0LELAr0m8JaOO+xUouHlPas1nH81sYoAmGP4HgFwxZz02AUBCPSDgM3Ufn/PRIBFDezTlmLYPzLCX9fD/tMiEgEwx/I9AuDcOemxCwIQ6A+BtYLi7E93xF39b1ED24pS2IYF5H7nv62krof9p20NATDHKj0CwCZ0sEEAAv0mYCMBby18JOANPYtXwp1/tWF/BMAKfZNHABy/Qtr8DAEI9IfA/gkCBU130Cn+tyV+X9CfKvhrSbjzr+/8zbYYAZjTEDwCoM8LaMxBxS4IDJ7AAyWdXchogA0/R0UhzKXicf7NnD8CYIEFewTAkQvSZDcEINBfApuP7qYsfn6KO/aoND8l6YY9qwKcv8/mGAGY0yAQAHOgsAsCEFiRwCMknZaZELBFiJ6wYs7LO4Bn/j7nzwjAAptHACwAw24IQGBFAhY6+E2SLu1YCFw4uv6rRnm53oo5Lu8A7vz9zh8BsMDuEQALwLAbAhCoTGATSa+RZO+QRw3jV0nHlgV+xegthb4GJBui879a0gUL/uy3KnYx7xgeAcxpzkMXABYP/MHjYUMbOuQPBh4beJyke0uyVeyGuK03bkOfl+TprOd14JN9tqCQzUF4mqT1ewx5iMP+l0m6/5I69SwHjQCYA3aIAmDt0Z3KSySd6lCTk86Iz+aKvM/s/iTpCEn3m9PmhrJrC0l7SfqwpDOcbc3mGhwiyRYfu/EAAA7xzt8eI913hbpFAKwAqO7PQxMAm46WID3a2Rn12XFRtnhB07cgNHX7mMnxFhnOlvvdR9K7xhEG7U7+KEnHSrLXir863v8OSS8e7XvQKBzxzSYJFPppjyfsdcQ9Jb1e0kdHSyAfJunbkn4oyZYltvIbiw9JeqOk04P7qMjwviki/FVx/lb9CIDgRjAkAWDDk7YWOU4OBm3bwKuD2y3J5UtgTUkWL8GE3/ck2SOLtu1t+np9cf5W4wiAYLsfkgCwBjndMPgfHm3ZgC1Be+fgtktyeRG47djpn5lRPxPp/FMs7LPSM//ZGkYAzBJxfh+KALi+JDO2tjp8rgPrWRv4hLOtcnqeBO4l6WsZ9i19c/5W+wiA4DYwFAHwmAwb6KyD4Hu/RcPvJdnqemz9IGDzE+zZfY7tNtL5d/nMf9ZSEACzRJzfhyIAXpppQ82x8yBP6Tp1G0ZlK5vAZpI+mHF/Eun8cxj2n7YWBMA0jYD/hyIAXplxg8XhpnO4ubG1uBNs5RJ4lqRLMu9LLDJjxJbTnf+kPAiACYmgz6EIAHsfOTdnQH6GVScWG2CDoHZLMu0SsDlEFs+glDZrIxSeIEm53flPahsBMCER9DkUAWAGbTOxS2nA5LN/dcXy2UGdVsvJ2J3wSQX2HT+W1OSRU6o7//sE1BsCIADidBJDEQBWZgu+gWOFQVc28Izphsf/RRC4naTfFdxvWATGO9YgbYIhOkJq3Vf9lmUXAbCMToPfhiQA7D3drlct68r5cN1uhY91XGs0aJ+c0h0Be73PJtSV3nZsYZ27V8CY853/JPsIgAmJoM8hCQBDZmuY/6EHjbr0TmlI+f/JKPTtTYPaK8m0Q+D2kmyJ4b7YqQmZHZagy/3Of5J1BMCERNDn0ASAYduR9QB607Hl3EHbanjvZuJfUE/VXjJ2J5xTNL8oG7f1BbaZg7EU529ZRwDMqUDPriEKAOO12mjhESu7xWg/dLwAiUVq4w8GXhv4z/FCNqUvYuPpV0o91xbu+XmP7vxnxYONRk2/HWBix1ZanD3O890es0ZM+JtnQwiAeVQc+4YqABzIOBUCEOgpgZJe9WvqpD8yrruS7vwn5oYAmJAI+kQABIEkGQhAoGgCzwu+E5510GeNlwL+J0mPHa0fYJMM7zT+s/9t38slfVzS2YnzcmBhd/4Tw0IATEgEfSIAgkCSDAQgUCwBezaeYrGw8yW9rcFKkPaIcidJ/y7JZvHPioncvqcc9p82KgTANI2A/xEAARBJAgIQKJrA54Kd7HmS/lGSRRD0bhY90tYyMTGRm+O3/LTl/I0jAsBrTTPnIwBmgPAVAhAYFIFHBjvW/5J0owQEbzyesJyTCLAVLlNN+JuHEAEwj4pjHwLAAY9TIQCBogmsLunEIAFg79o/vgUae2SyIFHbzt/QIgCCDQwBEAyU5CAAgWIImMOOuKO2uAF1Qu56AXUdojgyvG8dFgiAOrQqHIsAqACJQyAAgd4RsIl2PwwQALZWwM07oLOdJIv1HyFg6qTRxZ3/BC8CYEIi6BMBEASSZCAAgaII2LPrOo5v3rE2Q9/WGOlqs1GHiwPKMa9s8/Z16fyNMQIg2NIQAMFASQ4CECiCgE3Wm+fkqu6z5cUfnUFJox5jrFTurob9pxEjAKZpBPyPAAiASBIQgEBRBK4XcOf8HxmV+H1OMbOS8+/6zn+CGgEwIRH0iQAIAkkyEIBAMQS8d8026W+jjEprrx2em0gE5OL8DTcCINjoEADBQEkOAhDInoAt2LTSXe+y3y1scG7b3s4yzStvTs7feCMAgq0OARAMlOQgAIHsCXhW/LOZ9+tmWEJ7rBG5hkBuzt+QIwCCDQ8BEAyU5CAAgawJbOm8Uz4449K9wVm2yShAjs7fsCMAgo0PARAMlOQgAIGsCezmdJK3zLh09krixIk3/czV+Rt2BECw8SEAgoGSHAQgkDUBW6SnqXP8WdYluyZzv3KUL4dX/ZYhRgAso9PgNwRAA2icAgEIFEvgPQ4H+a4CSu15JdBiI+S8IQCCawcBEAyU5CAAgawJfM0hAJ6TdcmuydwLHeX7YublQwAEVxACIBgoyUEAAlkTOMbhIO+bdcmuydyujvLZ2gg5bwiA4NpBAAQDJTkIQCBrAic7HOStsi7ZNZmzlQKbznGw1yNz3hAAwbWDAAgGSnIQgEDWBE53OMjNsy7ZNZm7maN8v828fAiA4ApCAAQDJTkIQCBrAhbGt+kd8qZZl+yazHniHNjSxjlvCIDg2kEASBZBa2P+YIANuG0gp/j4i7rKXzgEwHaLEs1o//aO8p2YUTnmZQUBMI+KY99QBcBdJf23pPMcjaXpXQTnNb8Dg13+7C6X9FVJT5S0uqNvSnXqDxxt3vrL3Lf7OMr3vcwLhwAIrqChCYC1JNkynraWN84EBthAWhs4UtJmwX2WN7kjHG3/Gd6Lt3D+sx3lO7yF/HkugQDw0Jtz7pAEwGqSPuZoHDiLtM4Cvv3k+0tJtlxtLtshjj7grbkUYkk+3u4o33uXpJvDTwiA4FoYkgB4rqNh4Jz66Zyo13bq9ZPB/ZYnuVc4+gF7fJD79hNH+fbNvHAIgOAKGooAWFOSLeNJhw8DbKB9G7BHbjsG911Nk3usox/4k6ScXwW0VwA9jzcf0RRqS+chAIJBD0UA3N/R6HEY7TsMmPeP+euD+66mydlqfh772q/phVs4zzO6YUy2aSGPnksgADz05pw7FAGwj7PRezoMzvV1uPDrB78vzel/utpl77s3tSuLJLhGVxlfcl0b5TzFUS5bRTD3DQEQXENDEQAHOhpG046C85p3srDrH7ujgvsuT3IfcvYHT/BcPNG5T3OWKfcJgIYNARBsPEMRAJ4VsnBG/XNG1Gn7dfrZ4L7Lk5y9zuexARsFWMeTgeBz15Nkd/CeMlnchtw3BEBwDQ1FANgEJE/j4Fz4YQM+G3hZcN/lSc4if17h7BP292Qg+NyDnWW5TNIGwXlKkRwCIJjqUASAxQDwvB5D5+/r/OE3bH5XSbp5cN/lTe5/nE7TymT9Z9fb3SVZXjxtzKKilrAhAIJraSgCwLA91PmKjKeBca6vg4Jf2fzeEtxvRSRnr7x57erXkrpcIGgLSbaCn7ccD4kA2kIaCIBgyEMSAIbulQGNxdvYON/fYcGwHIbfkLR2cL8VkZx31vzEBn8kqYtFkOwxxo8D+rNc32qYV8cIgHlUHPuGJgAM1bMkXRTQcCYdAJ/lOCPqqr26sqA578xsstxsVxkVHdQcsd2Nt7XZ+grHBfVhJaxvMOGKAJiQCPocogAwdJtIsoAeX5Nky4NewB8MsAG3Ddj79fa635sk3Taoj0qZjM3k98QEmBaUNgv/LikzO07bnvn/Jsj5nyrJFkgrZUMABNfUUAVAMEaSgwAECiXgWT1vWgDY/1dKsrcdUjhVe4zyzwET/qbzbLEDStoQAMG1hQAIBkpyEIBAUQRWH49aTDtG7//2xtEjJdnbR97N0niMpJOC7vonZftWUP685atzPgKgDq0KxyIAKkDiEAhAoNcE7iTpj8EO1hzt8ZKeL+mGDejZEsoWwCxiot/E6U8+r5Z0uwZ56voUBEBwDSAAgoGSHAQgUCSB1yYQABOHa48GvjlK/1Xju3mbH2Gz+O1Rgf2ZQLB9tlKhhS3/dvBQ/yQfk0/LR4kbAiC41hAAwUBJDgIQKJKAvRZow+ITJ9nXzyMyXcyoitEgAKpQqnEMAqAGLA6FAAR6TWDL0bD7uT0WAWd2HLjIazwIAC/BmfMRADNA+AoBCAyawF0lXdpDEWDx/ncuvGYRAMEViAAIBkpyEIBA8QQenvgZfNuPF2ytgFLC/S4zHgTAMjoNfkMANIDGKRCAQO8JPHn03r3Nlm/bWUdfz5z/7j2pLQRAcEUiAIKBkhwEINAbAruNIoba0Hm0U24rPXuU8bDe1IaEAAiuTARAMFCSgwAEekXgnpLOK1AEnCPpbr2qCQRAeHUiAMKRkiAEINAzAlvJ53zauuOfXMdiDrS5OFFb1c0IQDBpBEAwUJKDAAR6ScAC9tgiR7bK4cTR5vZp0QwtoJHFNOjjhgAIrlUEQDBQkoMABHpNYEdJ38tQBPxAkq0U2OcNARBcuwiAYKAkBwEI9J7AGuM4/WdnIAQsuM9zJdmiRn3fEADBNYwACAZKchCAwGAIrCPpOZJ+24EQOE3S3pLWGwxt3zwMm8zJNkMAATADhK8QgAAEahIwIfBESV9MHDvA4hJ8Yfxe/9o189iHwxkBCK5FBEAwUJKDAAQGTWDT8eOBz0i6IGBk4HxJnxovK3yTQZNlBCC8+hEA4UhJEAIQgMBfCdhcAZs0+ExJb5BkouBHkk4ZiwOL0md/JhRsn/326fGxe0q600Ce7Vc1F0YAqpKqeBwCoCIoDoMABCAAgU4JIACC8SMAgoGSHAQgAAEIJCGAAAjGigAIBkpyEIAABCCQhK0o4sAAABTESURBVAACIBgrAiAYKMlBAAIQgEASAgiAYKwIgGCgJAcBCEAAAkkIIACCsQ5VAGwk6QWjWbaflXTCeAauzcLlDwbYQHMbOFHSN0Z91IGStgvuq0gOAgiAYBsYogB4cqHLe+a28Aj5yXdRmBzqxl5ve0uPF6YJ7opJrgIBBEAFSHUOGZoA2DcgMEcOnSt5wPmWYgMWHa+vq9PV6Ws51k8AAeBneJ0UhiQAds18Kc9SOnTyifioawOvv06vwxcINCOAAGjGbeFZQxIAFmWrbsfF8TDDBvw2cIWkmy3shfgBAtUIIACqcap81FAEwA44f8QPNtCpDexXuVfiQAjMJ4AAmM+l8d6hCACb8c+dHAywge5s4H8b91KcCIFrCCAAgi1hKALAXkui84cBNtCdDRwV3HeR3PAIIACC63woAmAfBAACCBvo1Aa+FNx3kdzwCCAAgut8KALA3gDg7g8G2EB3NvCm4L6L5IZHAAEQXOdDEQBrSTobEYAIwgY6s4GdgvsukhseAQRAcJ0PRQAYthfR+XfW+XPn3d2ddw7sLeQ2GwS8BBAAXoIz5w9JAKwuyWYi59AhkgfqYSg28BtJN5npd/gKgSYEEABNqC05Z0gCwDCsMwpI8n5EACIIG2jFBo4lANCS3pef6hJAANQltsLxQxMAExz3lfRpSZfhCFpxBEO526Wc0p8kWUe9l6Q1Jg2OTwgEEEAABECcTmKoAmDCYDVJm0ralj8YYANuG9hSkk24ZYNACgIIgGCqQxcAwThJDgIQgAAEEhFAAASDRQAEAyU5CEAAAhBIQgABEIwVARAMlOQgAAEIQCAJAQRAMFYEQDBQkoMABCAAgSQEEADBWBEAwUBJDgIQgAAEkhBAAARjRQAEAyU5CEAAAhBIQgABEIwVARAMlOQgAAEIQCAJAQRAMFYEQDBQkoMABCAAgSQEEADBWBEAwUBJDgIQgAAEkhBAAARjRQAEAyU5CEAAAhBIQgABEIwVARAMlOQgAAEIQCAJAQRAMFYEQDBQkoMABCAAgSQEEADBWBEAwUBJDgIQgAAEkhBAAARjRQAEAyU5CEAAAhBIQgABEIwVARAMlOQgAAEIQCAJAQRAMFYEQDBQkoMABCAAgSQEEADBWBEAwUBJDgIQgAAEkhBAAARjRQAEAyU5CEAAAhBIQgABEIwVARAMlOQgAAEIQCAJAQRAMFYEQDBQkoMABCAAgSQEEADBWBEAwUBJDgIQgAAEkhBAAARjRQAEAyU5CEAAAhBIQgABEIwVARAMlOQgAAEIQCAJAQRAMNYhC4A7SfonSe+U9An+YIANuG3gA5IOlvQgSWsF91UkBwEEQLANDFEA3F7SNyX9hT8YYAPJbOBUSY8L7q9IbtgEEADB9T80AWB3Jr+n00/W6SOqEJazNnBgcJ9FcsMlgAAIrvshCYBbS7oY54/zxwZat4GnBfdbJDdMAgiA4HofkgD4PB1/6x3/7N0g34c5QnCOpA2D+y6SGx4BBEBwnQ9FANxM0p8RAAgAbKAzG9gruO8iueERQAAE1/lQBMCedPyddfzc9Q/zrn+23j8a3HeR3PAIIACC63woAuAABAACABvo1Aas82aDgIcAAsBDb865QxEAL6Pz77Tzn70b5PvwRgW+Nqf/YRcE6hBAANShVeHYoQgAex8ZpwMDbKA7G/jPCv0Rh0BgGQEEwDI6DX4bigCwGciXIwIQQdhAZzbw8Ab9E6dAYJoAAmCaRsD/QxEAhurNdP6ddf7ceXd3550D++MlrR7QX5HEsAkgAILrf0gCYANJP0EEIAKwgVZt4DJJOwb3WyQ3TAIIgOB6H5IAMHRbSToOB9CqA8jhDpQ8dDMCcYGkXYL7LJIbLgEEQHDdD00AGL71JL1c0hkIAYQANpDEBuyu/32jvy2D+yuSGzYBBEBw/Q9RAEwQ2jNJWxL4UZKewB8MsAG3DTxe0r3GInvSzviEQBQBBEAUyXE6QxYAwShJDgIQgAAEEhJAAATDRQAEAyU5CEAAAhBIQgABEIwVARAMlOQgAAEIQCAJAQRAMFYEQDBQkoMABCAAgSQEEADBWBEAwUBJDgIQgAAEkhBAAARjRQAEAyU5CEAAAhBIQgABEIwVARAMlOQgAAEIQCAJAQRAMFYEQDBQkoMABCAAgSQEEADBWBEAwUBJDgIQgAAEkhBAAARjRQAEAyU5CEAAAhBIQgABEIwVARAMlOQgAAEIQCAJAQRAMFYEQDBQkoMABCAAgSQEEADBWBEAwUBJDgIQgAAEkhBAAARjRQAEAyU5CEAAAhBIQgABEIwVARAMlOQgAAEIQCAJAQRAMFYEQDBQkoMABCAAgSQEEADBWBEAwUBJDgIQgAAEkhBAAARjRQAEAyU5CEAAAhBIQgABEIwVARAMlOQgAAEIQCAJAQRAMFYEQDBQkoMABCAAgSQEEADBWBEAwUBJDgIQgAAEkhBAAARjRQAEAyU5CEAAAhBIQgABEIwVARAMlOQgAAEIQCAJAQRAMFYEQDBQkoMABCAAgSQEEADBWBEAwUBJDgIQgAAEkhBAAARjRQAEAyU5CEAAAhBIQgABEIwVARAMlOQgAAEIQCAJAQRAMFYEQDBQkoMABCAAgSQEEADBWBEAwUBJDgIQgAAEkhBAAARjRQAEAyU5CEAAAhBIQgABEIwVARAMlOQgAAEIQCAJAQRAMFYEQDBQkoMABCAAgSQEEADBWBEAwUBJDgIQgAAEkhBAAARjRQAEAyU5CEAAAhBIQgABEIx1Z0l/afj33eC8kBwEIAABCEBgEYEjG/oq83F2s8s2Q+AuDqDHzKTFVwhAAAIQgEAqAsc6/JX5OrYZAndwAD1+Ji2+QgACEKhKYGtJ/yjpQ6O7s69KOpy/Wgy+IOk9kvaQtH5V6IUf92OHv7p94WVPkv3bOICelCRHJAoBCPSZwHqS3iHpKkff0/SxZV/PO1PSU/psNOOyneywmVsPgE/tIm7jAGpGxwYBCECgKoENJB3t6HP66sCjynVQ1Yoo9LizHLZjI05sMwQ2cgA1Bb/aTHp8hQAEILCIwKcc/U2Uk+x7Ok9cBL/w/eZrrnbYj4lPtjkErnRA3XBOeuyCAAQgMEtgF0c/03enHVm+0yXZY5a+bTdw2I/5OLYFBGwov6kB8lxlAVR2QwAC1yHwMUc/07R/Gup5j7sO+X588cxXO6MfCNKUwjOz8iFpskSqEIBAzwh4bjSG6siblvvtPbMdK85DHQLyhB7yCCvSFx1gnxeWCxKCAAT6SmANSX9y9DNNHeFQz/t0Dw3pBQ77+XwPeYQVyV7JadpQ3hyWCxKCAAT6TOAyRz/TtH8a6nkf7KEhvdVhP30cEQmr4v0cYL8SlgsSggAE+kzgh45+ZqiOvGm5X9FDQ/qaw3726SGPsCLZhJGmhkYsgLBqICEI9JrAAY5+pmn/NMTz/ixp+x5akicGwKN7yCOsSDaT39NQNg3LCQlBAAJ9JXBDSRc4+xpPPzWUcz/ZQwPazGk3t+whk7Ai2QQdz/O5x4TlhIQgAIE+E7A7MSYD+m64lgkZiwGweQ8N6PEOAXCppNV7yCS0SN93AGYiYGhVkBgEek3AFq/5g6O/WeYAh/zbiZK266nl/KvDXiz0NNsKBN7rAHzUCmnzMwQgAIFpArYGyfslXeTod4bs7KfL/suRoHppT6P/TWzGc4NqKyayrUDgmY6G+EdJN1ohfX6GAAQgMEtg7fGEtftL2pW/WgzuKWkIC9xs4nxs9IxZo+P7qgS8EwF3XzVJ9kAAAhCAAARcBJ7kuDm1kZK+PhZxQZ092VZaOscB+tDZBPkOAQhAAAIQcBL4kMMvnc2KtdXpe5bqtNd7bDiPDQIQgAAEIBBBYB3nPJH/icjEUNJ4jkNp2VDLw4cCinJCAAIQgEByAo9y+qS9kuewRxfYygm7j/Gne1S9FAUCEIBAUQQ+4vBJFhFxi6JKm0Fmf+IAbu/23iCDMpAFCEAAAhAom4D5Ek+AuuPLLn43uX+tQwDYYwBbspENAhCAAAQg4CHwIqcvOthz8aGee0cn9B8NFRzlhgAEIACBMAJ2Bz8d8Kju/7cLy8nAErKQknVhTx//gIHxorgQgAAEIBBH4IFOH/SzuKwML6VXO+F/aXjIKDEEIAABCAQR+IrTB70yKB+DTGZbZ+hFm315+0GSo9AQgAAEIOAhcCdJ5kOmR5Xr/G+rTdpaE2wOAoc7KsAqy4IKsUEAAhCAAATqEPic0/ccVudiHDufwN87K8EU3E7zk2YvBCAAAQhAYBUCd3be/dvN5+NXSZUdtQlYWN8znSLAnuOwQQACEIAABKoQ+LrT55xBSPoqmKsds7+zMkyN7VbtUhwFAQhAAAIDJvCYAH/z8gHzCy/6jSRd6qyUk1Fk4fVCghCAAAT6RMAW/fml09f8XtIN+wQlh7K8w1kpNgpwQA4FIQ8QgAAEIJAlAe+r5+Zn3pZlyQrP1M0kXeEUAXb+9oVzIPsQgAAEIBBP4DYBPuZySbaYHVsCAhGjAEdKWjNB3kgSAhCAAATKJGA+4SjnDSZ3/4nrfjPnqkxWQfb3msT5JHkIQAACECiHwOsDnL+tQrt5OUUuM6dvCqgoi9D04DKLT64hAAEIQCCQwEOdEWcnN5YmItgSE9hAkr1jOYHe9PMcSVskzivJQwACEIBAvgS2lHRugD85S9KG+RazXzl7VkCFmXD4pqQ1+oWG0kAAAhCAQAUC9tz/W0G+5BkVrschQQRWl/SDoIp7Q1CeSAYCEIAABMohEPE42W4kvy/JfBJbiwR2kHR1kAh4SYv55lIQgAAEINAtgb2CfIf5oB27Lcpwr/4vQZVokwJ3Hy5GSg4BCEBgMAQeJOmqIN/xxsFQy7Cg15N0SlBFXilplwzLSJYgAAEIQCCGwM6SLFRv08nj0+f9QtJ6MdkilaYE7inpj0EVeokkWwaSDQIQgAAE+kXgDpLOD/IVNvR/j37hKbc0BwVVqqk7eyXkTuWiIOcQgAAEIDBDwG7sIl73m4wAvGomfb52SMBe5/huoAi4CHXXYW1yaQhAAAJxBO4aeOdvAuA7hJOPq5yolLaRdF6gCLDnRA+LyhzpQAACEIBA6wQeEbCU/OSufzJCbAvTsWVIwCbxRc0HsMq2tF6YYTnJEgQgAAEILCfw7MBXxc0fEEJ+Oe8sfn1F4CjARPm9XdI6WZSOTEAAAhCAwDIC1le/M4EfeNmyi/JbHgRWk/SRBJV/jKRt8ygiuYAABCAAgTkEtpP0wwT9/4ckmW9hK4DA2pK+kcAILiZgUAG1TxYhAIEhEniMpAsT9Pu2ZgwjwIVZ1I0knZzAGOyxAI8ECjMGsgsBCPSWwLqJhvytr/+ZpI17S67nBdtK0qmJRMDPJd2v5/woHgQgAIGcCVgwnp8m6uNPk2Rvl7EVTOBWks5MZCA2K9RGA25QMB+yDgEIQKA0AnZXbhP9rA+eTNaO/DxDks0nYOsBgdsHR4GaNbRzRiLjuZLW6AErigABCEAgVwLWxz4/cX9uEQNvlysA8tWMwG0lmaqbdd6R30+Q9ChmizarIM6CAAQgsICAzcB/rKSfJO7DT5e0/YI8sLtwAjak8+vEBmSCwl4ZtAhUvDZSuMGQfQhAoFMCq49vqn7QQr/9K0m36LS0XDw5AZsYmFpFTkYVbHLKXrxCkrxOuQAEINAvAjaz/1njWfiT/jTlp43ebtkvhJRmEYENJH2pBUU5MVh7N/Xdku64KEPshwAEIAAB3UbSGyTZvKpJ/5n683BJG8F+WATWkvSBFo1sYsTfHy1Osa8kFpQYlr1RWghAYD6BrSXtJ+nYDvrj90kyX8A2UAL/IOmqDgzvz+O5AgePlx7mDYKBGiDFhsDACNjy7fcaLan7mrHTt75wcoPU1ueVLPQ2MKtbUlwzxtRvCKxk2JeMhMBXRw3hVZIePHpksNmS/PITBCAAgVIIWF9mfZr1bTbcbkutr9QfpvzdZvpbACE2CFxLwIz0Kx0b5qzR2/uotqbBf42WJt5f0lPGDWnH0eMLGzazYBj2x9sG11Yj/0AAAi0QsD5n0v9YX3Tncd/01FFwngPGfdYRks7LrE/9sqSbtsCHSxRIwIx6H0lXZGa0s8Kgi+/njxr4UZJsScyUE2buJum9kk4ZXety6qHTO6Uu7Ixrdnt33Ff+1pfszc1SgV65gyzfYfQefxvvnZba2EzVPzK4Xuy1H5uU2cXzwFLrgXzjLLGBlW3AJhdaNFg2CFQmYBNVbGbqH7gLnXsXajG496hMc/mBNgv363Cey5kOfuUOHkYwmmcDl43mG/zjaLKh9eVsEGhEwCJDtRkzYJ4h57rPxFFE5KzX4/xx/tgANhBoA1+QtG2jHp+TIDCHwMNGd7wnBRpork69br4+OIdVnV2b8qyfjp92hQ0E2cCJkh5SpwPiWAhUJWBD1RY34KwgY63rbHM83l7psef3TTdb2SvHcpEn6gUbKMcG7DXuFxHUp2k3zHl1CFxvPKMUIXBNB7FDHXgzx9orjnS0MMAGsIEmNmATku3NJOuT2SDQKgFbU8Ammfxm4E5sVwf1zwycXZNOj3NwlkO3AVvV1V7Zvr6j7+FUCIQQsEcDTxqH9h1iw/SMAFgs7iEyo8zUOzZQ3wZsLZUnMrM/xG+RSAIC249Xs7LAOUNo4MwBGEY9D8GWKWOetnzxeDVVi4DKBoEiCNgzKVOqNsTd54h2hzprw94CINZCnh0vDpF66coGrM/8tKTdeb7v7GE5vXMCG47j+H9MUp9GBizQRsS7tq8byGhJV50p18WRl2AD1jd+VNKTJVmfyQaB3hGwZX9tJaoDx9HvLi3U+VkkQFPnEZvNofhaoRxK6FjJIwIgRxuwx4fW7q0v3FkSS6JH9KakURQBC1N5l/Ha1O8eL7hjSwPn2GAnebJVCncLpmyxBOyVQNYCyLvuJzbAJ/VUxwasT/vu+Fn+C8d9HiF6gztRkusHAVuV8GaS7ivp6aMimUI25/i/kr4zuvP+maQzR0GJLhjFI7iwJbFg79taA7b1EVIOz+0k6T2jRya/7PnciTqdJ8fibHO0Aet7rA+yvsj6pG+P+yjrq6zPsr7rPqO+aytW4cvTMf1/M2dTWNojKiIAAAAASUVORK5CYII=;" vertex="1" parent="1">
          <mxGeometry x="1175.5" y="920" width="110" height="110" as="geometry" />
        </mxCell>
        <mxCell id="yI9EZNTHulhPJnTRhF_V-89" style="edgeStyle=orthogonalEdgeStyle;rounded=0;orthogonalLoop=1;jettySize=auto;html=1;" edge="1" parent="1" source="yI9EZNTHulhPJnTRhF_V-87">
          <mxGeometry relative="1" as="geometry">
            <mxPoint x="1286" y="950" as="targetPoint" />
            <Array as="points">
              <mxPoint x="1286" y="950" />
            </Array>
          </mxGeometry>
        </mxCell>
        <mxCell id="yI9EZNTHulhPJnTRhF_V-87" value="Proof Of Reserve Contract" style="shape=image;verticalLabelPosition=bottom;labelBackgroundColor=default;verticalAlign=top;aspect=fixed;imageAspect=0;image=data:image/png,iVBORw0KGgoAAAANSUhEUgAAAgAAAAIACAYAAAD0eNT6AAAAAXNSR0IArs4c6QAAIABJREFUeAHtnQt0HFdh9yXFcZ6Q8DIEQuGDpBzCu4WWlkIpDRTKoRwobrRKzKNfCaV839fD80sPbTGUoJVdQlsIEJ6FAgkJ5MUXAjg4IQlJkziJvbIsS35Ku5Js67WzetlW8P3OyB5lvZrdnZ25cx9zfz5nz+7Orufe+evO/f3mzuzctjb+kQAJkAAJkIDhCazbeOCsXHf5L3N57zu5fGVrLu9N5fLesVzeE44/juby3sHOvHd/rqf8r50bKq9de704xfA/J9UjARIgARIggcYJXNozeX5nvvyNXN5bcBz0rYjOwVy+8om1V4kzGqfLpyRAAiRAAiRgWAKvXy9W5bq9z+by5XnAH3OUo8cb7uwpv8uwPy3VIQESIAESIIHwBLq6y0/K5b1NgD8m+E8+LXKss6eSX79edISnzVISIAESIAESMCCBdRtn1uTy3gDwlwL/5dMGXT3edUiAAQ2cKpAACZAACaxM4PJrxKm57vJdwF8u/Jfz7PY+uzJ1lpAACZAACZCA5gQ6eyrXLMPq5GHs5SNZPk8kB8f8X1Jo/jNTPAmQAAmQAAk8nkDXhumX5/LebwB8IsBHEKVy6W3rR898PHlekQAJkAAJkIDGBLjoL23wV6+/8gmNf2qKJgESIAESIIHjCXR2T7+CI/9qQKf++gA3C2LvIwESIAES0J5AZ7f3GQQgdejXnB6o/JH2PzwVIAESIAEScDuBXL5cQADUCkBXvrzR7VbH1pMACZAACWhNYO36Q2dzT3+18D8hW7/W+oencBIgARIgAbcTyG2ceilH/1oE4IDbLY+tJwESIAES0JpAV37mdQiAFgE4rPUPT+EkQAIkQAJuJ9DVXb4YAdAiAMLtlsfWkwAJkAAJaE0AAdADf1+6tP7hKZwESIAESMDtBBAABMDtPYCtJwESIAFHE0AAEABHmz6bTQIkQAJuJ4AAIABu7wFsPQmQAAk4mgACgAA42vTZbBIgARJwOwEEAAFwew9g60mABEjA0QQQAATA0abPZpMACZCA2wkgAAiA23sAW08CJEACjiaAACAAjjZ9NpsESIAE3E4AAUAA3N4D2HoSIAEScDQBBAABcLTps9kkQAIk4HYCCAAC4PYewNaTAAmQgKMJIAAIgKNNn80mARIgAbcTQAAQALf3ALaeBEiABBxNAAFAABxt+mw2CZAACbidAAKAALi9B7D1JEACJNAsgb6+1W29w2/qKAx/ob1Q+kV7obi1vVDcY/vj/E1jo/7c9DzUZ9CsyfE5CZAACZCAzgR6R57d0Vv8enuhWG4vFEXWHudtHgX+mgRIZ7OmbBIgARIggXoJ3Fc8o6O3uKG9UFzIGvSrtwcBUH/kH4y21Gt6LCcBEiABEtCVwCPDz2wvFB+sBmVWXyMACICu3YxySYAESMCsBLYOvai9UBzJKvBrtwsBQADM2gGpDQmQAAnoSKC/9JT2QnFXLSSz/B4BQAB07GqUSQIkQALmJHC9OKW9ULwry7AP2zYEAAEwZyekJiRAAiSgI4Ftxb8JA2TWlyEACICO3Y0ySYAESMCMBPbtO729UBzOOuzDtg8BQADM2AmpBQmQAAnoSGDb8AfD4OjCMgQAAdCxy1EmCZAACRiRQHtheJMLsA/bRgQAATBiJ6QSJEACJKA8gS17zmkvFI+EwdGFZQgAAqB8n6NAEiABEjAigULxz10Afb1tRAAQACP2QypBAiRAAsoT2Fb8+3pwdGE5AoAAKN/nKJAESIAEjEhgW3G9C6Cvt40IAAJgxH5IJUiABEhAdQIdhWJ3PTi6sBwBsEAApqfFud7CY13l+ceuLi8s/rS8sHh/+fDiFh5kELcNjJUP7x4cm52z6DE/ODp7ZGBsdnFwbPaxgdGZ3wyMzT42ODa3sGtsZqx/ZOYH+8fFeaoBQnl2J4AAMB1wMDuf6ueme0758OIbywuLvygvLB4tLywKHmQgqw2MTh8WO0ozmXr0l2bFwNjs7PZS5SNNdy6+QAJtbW0IAAKgGvxBeXV3wKkjR15yAvxAH/FJpQ1kUQCqhWZwbNYbGK28tu5OxgckgAAITgEYdgqgPP/Yu8oLi3OyjvRYD6MGYW0g6wLgy8DO0RmxY3jmXyAdCdRLgBEARgCCI3LVzyvaZHlh8R/KC4vHwjpslgFymW3ABQHwJaB/ZEb0lyo3rNjZWEACjAAwApA3ZATAW3hsncwOnnUhDI3agCsCsHRaYGRGFIZnvgTxSKA2AUYAGAFQfeQflLfcFr35o79fXlhcaNRh8xlAl9kGnBKA0owYGJ0RD+3xPry80/GCBBgBYARA9wiAEKKjfHjxEZmdO+tCFpq1AdcEYOmagJEZsenRA12QjwSCBBgBYAQgOCJX/bzUBhn6B9bNYJ3G5y4KgC8B9+2c+M0d2w69KwAAz24ngAAgAKrBH5S3tOeVFxYH0+jgWSdi0agNuCoA/i8DNm09+BgjAW6DP9h6BAABCICs+rlt+ujRlzXqpPkMiKfVBlwVgP6RWbF527gvAYuMBAQYdPcZAUAAVIM/KK/NW1j857Q6eNaLPDRqA64KgH8a4OE9ZV8AGAlwl/vLW44AIAABkFU/t5UXFjc36qT5DIin1QZcFoD+0tJpgEACGAlYxqF7LxAABEA1+IPyfAEopdXBs17koVEbcFkABkZmA/gHz1wT4B77l7YYAUAAAiCrfvYFgN/+c6//VO713wj+/mcuC8Dg6AoB4HQAAiBUTv/b0Vvc0FYYep7uxxu+MbFONfgo7/jdB30B0NL5Uy65uywAA+EC4EsApwMcEwFdIwBtheIVJkTd1V2+GCDruR0wAoAAaRNABGDpIsDgFED1M6cDTCCTojogAAiALgFCABAABKA0I5bu16/wucEIQCACSIAiAOsuBgFAABAAQKwNxLpOxzACUHcEAAnQTWWF5SMACAACgAAgAAqPwFUf8deWF2EEAAlQCGGdRSEACAACgAAgAAhAAP3aZ04H6CR0ymUjAAgAAoAAIAAIQC34q98jASmDWNfqEQAEAAFAABAABKAa+GGvkQBdlE6xXAQAAUAAEAAEAAEIg37tMiQgRRjrWDUCgAAgAAgAAoAA1MK+3nskQAepUyoTAUAAEAAEAAFAAOoBP2w5EpASkFWvFgFAABAABAABQADCQN9oGRKgmtYplIcAIAAIAAKAACAAjWBf7zMkIAUoq1wlAoAAIAAIAAKAANSDfLPlSIBKYksuCwFAABAABAABQACagb7R50iAZDCrWh0CgAAgAAgAAoAANAJ8lM+QAFXUllgOAoAAIAAIAAKAAESBfLPvIAES4axiVa4LQGf39Ot1AdDxcheZDhjx0CYezAbYdDbAZrCv9zkSoILckspwXgB6yq90HMRC0/ZPIQAIAAKgYeShhdkA60G+2XIkQBKg016N6wKwbuPMGk0A1AVeU8p9FAFAABCAbAqALwhIQNr0lrB+1wXAjzCXrxSRAE+xGJS/hQAgAAhAdgUACZAA6LRXgQC0tXXmvS8jAGoFoCtfeTsCgAAgANkWACQgbYInXD8C0NbWlff+DAFQKQDl+XUbD5yFACAACED2BQAJSAjpNP87AtDWdvk14tRc3htEAtRIQGdP5ZqlNl0GgNoA6Hr2/AogtV8B+MAPe3BNQJokj7luBOB4cJ095XchAEoEYPayK+fOQwCQH63ygwCEQjoM3DKXIQExQZ3Wf0MATiQrRHtnj3cvEpC6BPzzclt2/SiU7V/UJgEIgBYB8GUCCVjuAfW/QAAe/xv4R6b8IiBVAfjF69eLVcuJA0B9AHQ9ewRAmwAgAcs9oP4XCMDJf4OuHu/3cvnyPCMB0kWg/71fmD73pLRdhxDbr0+AEACtAoAEnNQT6nuDAKzMvrN7+hW5Hm8YCZAjAUunVq6cffqKpAGgPgC6nj0CoF0AkIAVPaL6BQhAeOZrPzv/LK4JSCwAv+nKe19au16sDk3ZdQix/foECAEwQgCQgNCeUd1CBKBx1l3d5YtzPeVeRgNaloFN/khKw3QBoD4Aup49AmCMACABDXvJdD9EAJrn61+4luspvzHX7V3NqYG6InAsl/ce6ezxPnVJfvplzVNta+NGQPwUkF8BuHEjIB/yzR78OiBSryn3SwhA63nm/rXy1Es2lH8n111+gz9C4PKjc0PltZfmZ1/ytvWjZ7acpOtHoWy/vhEQRgCaArkZsNP4HAlouRdN9h8QgGT58b8TJAAA9QHQ9ewRACMFwJcKJCBBn9rqf0UAWk2M70tLwHUIsf36BAgBMFYAkABpPWzzFSEAzTPiGyklAAD1AdD17BEAowUACUipz61dLQJQmwjvlSXgOoTYfn0ChAAYLwBIgIKeGAFQEDJFhCcAAPUB0PXsEQArBAAJCO86pS1FAKRFyYpaTcB1CLH9+gQIAbBGAJCAVjvWFr6PALQQFl+VmwAA1AdA17NHAKwSACRAbte7vDYEYDkKXqhOwHUIsf36BAgBsE4AkIAUOmgEIIVQWWW0BACgPgC6nj0CYKUAIAHRutbI30IAIkfFF2Un4DqE2H59AoQAWCsASIDEjhgBkBgmq2otAQCoD4CuZ48AWC0ASEBrXW3dbyMAdaPhg7QTcB1CbL8+AUIArBcAJEBCB40ASAiRVcRLAADqA6Dr2SMAmRAAJCBe17v8vxCA5Sh4oToB1yHE9usTIAQgMwKABCTouBGABOHxX5MlAAD1AdD17BGATAkAEhCzK0YAYgbHf0uegOsQYvv1CRACkDkBQAJidMkIQIzQ+C9yEgCA0QF4sDwnNt3fK77xozvEVd++RXzuK9db//j37/5EfO/WX4n7C7vF1PxRobI9IACZFAAkoMWuGQFoMTC+Li8BlR2+jWVNzh4RP7z91+Lyf/yiePlb/0688OK/yezjNe/6iLhi47fFr7b0KxEBBCCzAoAEtNBFIwAthMVX5SZgI5RV1dk/2n/b+z+VWeA3kpl3f+xfxUM79qUqAghApgUACYjYVSMAEYPia/ITUAVTm8o56M2LD3/2606Cv1oKXvymy8UXv3dbahKAAGReAJCACF02AhAhJL6STgI2gVlFXXePjIt3fOAzzsO/WgQ+3vMtMTFzWLoIIABOCAAS0KTrRgCaBMTH6SWgAqq2lDE2NevskH818MNefyz/TQSgNCN2SHoMjM76YHTp8dimRw90pdeT2btmBMDev531NbcFzmnX078C3r/QLwx+LDt+4ePXr98kVQIYAXBKABgJqEMLBKBOMCxOP4G0wWrL+r9942bg3+QXDi958wdEYfeINAlAAJwTACQgpEtHAEJCYZGaBGwBdJr1PDA9K1679qMIQBMB8EdC/u6fr0YAJJwGcPAUQPXpDk4HVHXvCEBVGLxUm0CaYLVl3f7NcBjmj3Z/g4ve+H5xf+9uKRLACICTIwCBCCABJ7p6BEAt8yitKgFbIJ1mPf/8r/8JAYhw9B9I0qe/eC0CkHAUwPERACSgqg9GAKrC4KXaBNIEqw3r3r53FPi3AH9fAt7Q9QkEAAEIIJ702fmRAARALfMorSoBGyCdZh39K9uDI1ueo50G8HPatquUWAI4BeD0KYBqcXBaAhCAKiDxUm0CacLVhnX/w+e/gwC0OALgC8DNmx9EABKMAnAKYIX8OCsBCIBa5lFaVQI2QDrNOvLb/+hH/dUjJN/80S8RAASg+ihexmsnJQABqAISL9UmkCZcbVj3+z5xFSMAMUYAvvyDnyIACIAM6NeuwzkJQADUMo/SqhKwAdJp1vED//glBCCGAHzrx4wAJLktMKcAVpwCqBYBpyQAAagCEi/VJpAmXG1Y9z9+4bsIQAwB+MmdWxgBYASgGtqyXzsjAQiAWuZRWlUCNkA6zTr6R7LV57Z5He2agL69YwhAAgHY6d5kQHEEwQkJQACqgMRLtQmkCVcb1j0wfFD4d7cD/NHA7+f0lvd+MjH8/bbh8s8Ad444NxtgHAHw/0/mJQABUMs8SqtKwAZIp13Ht1/+aQSghdMA3V+9AQFIcPQfXDtw9/aJuFB07f9lWgIQgCog8VJtAmnD1Yb1f/W6nyEAEQXgRW98v3i4fwgBkCAAhaGyayBPsr2ZlQAEQC3zKK0qARsAnXYdx2cWxMWXXYEERJCAj3zuG1Lg7/9NXT4F4I8C8EuAhr8ECJOFTEoAAlAFJF6qTSBtuNqy/utuvxcBaCIAL//zD4qdQwcQAAlH/74A9I/MiF/1joeBjmVb68pB5iQAAVDLPEqrSsAWQKuo5yc2fAsJaCAB/3XLr6TB3/97uj4CEEjApvqwQwTCs8mUBCAAVUDipdoEVIDVljIOevNi7YeuRAJCJOCzX/6hVPgjADMiEIBf93MxYAwJyoYE9PWtbi8Uf9leKArVj7ZC8Qq1tKE04xKwBc6q6jl0aFpc+uENSECVBPzL1T8Uk3NHEABJQ/8++Ksf/rUAm7dxKsA5Cdiy5dT2QvEm1eAPykMAjMOx+gqpAqtN5UzMHBafvIo7BPrn/K+97R7p4A/aAqcAHhcB7gtQ95x/s9Mgdo4EaIa/LwEIgHreGldi0BnzvLgCdPduHRSdf593bjTAvzHShz71FdG3L/nd/hq1KwTgcQEITgf8MvycdzMIuv65XRJgAPwRAONQrKdCjTpoPlsU0/NHxe33bBUfy39T/OE7P5xpGXjzez8pPveV66X9zr9Z+0EAThYAXwIGx2bEXdsPuQ70ONtvhwQYAn8EQA9vjSu1WSfN54+PDPjnwR/Yvldc//P7xNev3yS++L3brH98+8bN4tY7HxIy7u3faltBAFYKgC8BAyMzYttQRTAa0PJpAbMlwCD4IwDGoVhPhVrttPn+40JAFsmyQADCBSC4QNC/OLB32BP37OBXAi1cIGimBBy/2v9mH7ymPNq2FT+uhzqUakwCQCwZxMgvfn4IQGMBCERgaVRgbFb4Fwr2FStLUtA75AkenigMeWLr3rJ4YHBabO5dPnVilgQYduQfCEjbttK7jQERFdGTAACLDzCyS5YdAhBdAKplgNd1chs5fntlXwru7D1khgQYCv/jpwBGLtZDHUo1JgEglgxi5Bc/PwSgDshq7hMA8FvPyR8t2VGsHPtV7+T/1NbZGjjsHxz9LwlAX/ECbdlQsBkJALD4ACO7ZNkhAK2DDRloLTP/OopH9kzllfe2Bh/5n5CA3cozoUDzEgBiySBGfvHzQwBagxnwj5dXf2lW9I9UblTW+5oPf9FRKH1eWR4UZG4CACw+wMguWXYIQDygIQKt5+bPvDg4OveV1Htiw4f9Txz9H2vbNvI7qWdBAeYnAMSSQYz84ueHALQOMuAfP7OdIzNi+1DlPan1yhYc+fsC0FEY/mFqGbBiuxIAYPEBRnbJskMA4sMMEYiX3eDY3GN3CrFKei9tx5G/fw+Co21bS78tfftZoZ0JALFkECO/+PkhAPEgBvyT5dY/MvsLqb21JUf+S1f+bxv+oNRtZ2V2JwDA4gOM7JJlhwAkAxkiEC+/gdHZY/uEOF1Kz20R/DsKpW9J2WZWkp0EgFgyiJFf/PwQgHgAA/zJc+svVb6auBe3Z9hftBdKt7Rt2XJq4m1mBdlKAIDFBxjZJcsOAUgOMmQgXoaDY7OHEvXkFh35txeKt7Xt2nVaou3lP2czASCWDGLkFz8/BCAevIB+8tz80wCxe3TgHzs6/qNhCQCw+AAju2TZIQDJQYYMxM9wy/jceS13x8C/5cj4DwYnAMSSQYz84ueHAMSHF+BPnl3fqHdZS10z8G8pLr5sQQIALD7AyC5ZdghAcoghAvEz7C/NfiRyFw38I0fFFy1KAIglgxj5xc8PAYgPL8CfPLtdB+ejCQDwt4hoVLWlBABYfICRXbLsEIDkEEME4me4f3zhb5p2lsC/aUR8weIEgFgyiJFf/PwQgPjwAvzJsxuaWGh8DQDwt5hsVD1SAgAsPsDILll2CEByiCEC8TNsKADAPxI/+JLlCQCxZBAjv/j5IQDx4QX4k2dXVwCAv+VUo/qREwBg8QFGdsmyQwCSQwwRiJ9hqAAA/8js4IsZSACIJYMY+cXPDwGIDy/Anzy7FQIA/DNANDahpQQAWHyAkV2y7BCA5BBDBOJneJIAHJ/Y5yZ/ylwLHtzbvyXK8eW6CQCxZBAjv/j5IQDx4QX4k2e3LADAvy4f+CDjCQCw+AAju2TZIQDJIYYIxM9wSQCAf8YJx+Y1TACIJYMY+cXPDwGIDy/Anzy7/kOz720vFBn2b0gIPsx0AgAsPsDILll2CEByiCEC8TO8fM/EFgvO9/vXJHDOP9MU1rhxQCwZxMgvfn4IQHx4Af7k2b1z9zgX/GlkD0UbkAAAiw8wskuWHQKQHGKIQPwMLRAAjvwNYGSmqwDEkkGM/OLnhwDEhxfgT56d4QIA/DNNXkM2DoDFBxjZJcsOAUgOMUQgfoYGCwDwN4SPma8GEEsGMfKLnx8CEB9egD95doYKAPDPPHUN2kAAFh9gZJcsOwQgOcQQgfgZGigAwN8gNjpRFSCWDGLkFz8/BCA+vAB/8uwMEwDg7wRxDdtIABYfYGSXLDsEIDnEEIH4GRokAMDfMC46Ux0glgxi5Bc/PwQgPrwAf/LsDBEA4O8MbQ3cUAAWH2Bklyw7BCA5xBCB+BkaIADA30AmOlUlIJYMYuQXPz8EID68AH/y7DQLAPB3irSGbiwAiw8wskuWHQKQHGKIQPwMNQoA8DeUh85VC4glgxj5xc8PAYgPL8CfPDtNAgD8naOswRsMwOIDjOySZYcAJIcYIhA/Qw0CAPwNZqGTVQNiySBGfvHzQwDiwwvwJ89OsQAAfycJa/hGA7D4ACO7ZNkhAMkhhgjEz1ChAAB/wznobPWAWDKIkV/8/BCA+PAC/MmzUyQAwN9Zulqw4QAsPsDILll2CEByiCEC8TNUIADA3wIGOl1FIJYMYuQXPz8EID68AH/y7FIWAODvNFkt2XgAFh9gZJcsOwQgOcQQgfgZpigAwN8S/jlfTSCWDGLk13p+e+eOiJ/PzItrD1XE7UOe+O9iRQCy+CAju3jZpSQAwN95qloUAABrHWBk1lpmB+cXxZVTnnjN5IS4sHxIXDg3vvRYM3ZAtBeKS49nbB8Rf7bzgNi4Z1JsKcbr0AEhubXSBlIQAOBvEfuoaltbGzBrDWbkFT0vH/x/OzUtLvCOAz8Af/BcLQCBCPjP5/aWxP/eNS4eZGSAkZFSelIjWQCAP0S1LwGAFh1oZBU9q6umZ8Rvl8PB30wAAhl4Um9J/MPuCdHLiAAikIIISBQA4G8f+qixnwBQiw41smqe1U9n5sUrJxuDP6oABCLwoh2j4r/2TQPBFCDYypB51r4rSQCAPyi1NwGg1hxqZNQ8I//CvrdPTooLZqPB35eAeqcAAvDXPv9J/5jYNOQhAoiAlDYgQQBubuvrW21v70/NnU8AuDWHGxnVz2hqYVH8n8myuKASHfytjgBUi8AZvSXx/sFDXCiIBCSWgIQCAPydp2cGAgBu9eFGNo2z+bY3K144/fhV/QHYoz63OgJQLQL+rwa690yKPkCYGIRZG9qPuj0JBAD4Z4B9bALXAAgg3xjyYfncO7MgXh3xPH8jGUgiAIEMvHTHqLh2fxkIIkItt4GYAsA5f8iZnQTCOniWtQ5FFzIbmjsi1k5OtXSeP20B8EWgo1AUb995UNxd5PqAqEe/fG9GxBAA4J8d9LElfgIugIttTC4066e8ur/nbwT5Rp/JGAEIRgL85zN7i+JDu8bF1hJ3FgTwze8f0KIAMOwPMrOXAHBMDscsZ/g9b05cNNX6BX6NwB98JlsAAhl4zvYR8YW9Uy0PCQPN5tDMUkYtCABH/tlDH1vkJ5BleLFt8eVm69xh8YaJCXFhCz/rC8Ae9TktAQhE4A/6x8TNQ1wfkCVoy9yWiALAkT+ozG4CQDI+JLOY3dj8UbFu6Tx//Kv7TREAXwRW9RbFJQMHxb3DnBaQCc8srCuCAHDkn130sWV+AlmEGNsUT2o2+rfv9dIHfyAIaY8ABCMB/rM/vwC3FXZriL+ZpDQRAOAPIrOfALCMB8ss5fb/KvPiZSmd5w9gH/asUgACGXh+34i4Zh/XBzSDowufNxAAhv2zjz620E8gSyBjW1qTmb7Zw+ItkxPigll1R/3VIqBDAAIR8G8r/PNhfjboAujrbWMdAeDI3xI0vvcL0+eu21j+H13d5ee5/Li0Z/L8tesPnR3rzwY0W4NmFvKaSHD73mqAJ32tUwB8ETi1UBLrBg4x7bCjNxEKEQDgH4siav5T1wbvwlx35eO5vHdPLu9VcnlP8Dgpg4O5fPnGXE/lPe/+XOUpkf4qWQAa2xBdYv4twjS9ScEe9f/rFoBgNGBN74hYv2dSbHcUhPWOkLO+vEYAGPaPRAz1X7qk23tVLl/ZDOxPgn0z+VnM5StfvezKufMa/sWAZ3R42pzVryTdvjcq3KN8zxQBCETgxTvGxPeYdtiZ+ydUCQBH/g0poefDv+4Zf0JX3vt+Lu8dA/4twb9aDmb9UZM2IdpD/4o2Q426N5eXfTGm6Y0CbxnfMU0AfBHwbyv85p0HxB1cH5B5ETghAMA/lAx6F/rn9HM95V7AHxv81RLgv/7h29aPnrnirwpEm0PUxoz8aXr/73RZXKDwZ32tSoGJAhCMBvjTDvu3FX6kyP0Dsnoq4PI9Ew+39fWtXtEpskBrAkvn+vPeIeAvDf6BDNzzlv8Qp530x7URbtS5sbT8pzcrLppO5/a9rUK+0fdNFoBABJh2OLv3Dug7NPu+kzpD3mhP4NL1k0/M5b3twF86/JckoKvb++5Jf2Rg2himNuVz38yCeK2EaXobQVvmZzYIQCACv7djTNzIbYUzdVpgaGLhspM6Q95oTyDX7d0C/NOB/3KuPd7fLf+hbQIcdQ2XlZHl2/eaf9RfLRA2CYAvAqecmHb4Hq4PyIQIIADLGDDiRWf39OuXIcVP/IJh+zQ2R2I/AAAgAElEQVSep9Ze5T156Y8OVMOhaksuaUzTWw3pNF/bJgDBaMBZTDuMABiBzAxVQoj2XN7bggCkfPR/Qqw6eyp5BGDBXvjf5M2Jl1pwnr+RQNgqAIEIPLePaYdtvkCQEQBzBKIrP/M64K8G/idyLq9dL1ZzK2DLJKCgYJreRtCW+ZntAhCIwB/2j4lbuT7AulEBBMAcAcjlvc8jAEoFQFzSXX4TAmCJAPjT9L5/clpcMGPXef5GwpAVAfBFwL+tsD/t8K+ZdtgaEUAAzBGAzry3CwFQKwC5bu9qBMACAVA9TW8jaMv8LEsCEIwGMO2wPT8bRADMEAB/Uh/grxj+eU905r0HEQCDBcCfpveVFv2sr1U5yKIABCLgTzv8NaYdNno0AAEwQwA6u6dfgQCoF4Bc3htHAAwUgMen6c3OcH+YHGRZAAIRYNphc0cEEAAzBCC3YeaPEQAtAnAUATBIAEyZpjcM1mksc0EAfBFYfWLa4YeK5sLQ5qv549YdATBDALq6yxcjAFoEQCAAhgjAv5cr4gXlQyIN0Jq6TlcEIBgNePp2ph2OC+s0/h8CgAC4Lh4IgGYBuNvAaXpVCYNrAhCIwEv6xsT395eNPj+eBnBNWycCgAAgAJoBaMsd92TXc3ma3gz9rK9VcXBVAHwRCKYd/iW3FdYmQggAAoAAIABCNtwbrc+GaXpbBXnc77ssAMFoQDDt8KMlph1WPUKAACAACAACoEwAvuPNihdOZfvK/lZkAAEoikAEzts+Irr3TGo7GlYNXxPKQwAQAAQAAUhdAO6ftWua3lYgnuS7CMDjAhCIwKt3jImbuK2wEhFCABAABAABSE0ASvNHxLsmp8QFsxz1h4kCArBSAHwRWNVbFLnBQ+K+IqcF0hwpQAAQAAQAAUhFAL5fmXPuZ31hkG+0DAEIF4BgNOAp20vi3/ZOKTkaThO0pq4bAUAAEAAEQLoA/C9/0p5Zt37T3wj09T5DABoLQCAC6wYOie0lbiIkWyQQAAQAAUAApApAbnLKqZv51IN7lOUIQDQB8EXg7TsPij4kQOpoCAKAACAACIA0Afj4dBn4z0W/3gEBiC4AvgR8YNchqQCUfURt2/oQAAQAAUAApAjAvTML4oIZhv2jHPkH30EAWhMA/+ZBX2eGQWkShAAgAAgAAiBFAF47Oi4ucPiufgHUW3lGAFoTgPZtRfGse/eJh4ueNAjadtQus74IAAKAACAAiQXgrvL80q1dT91REs84eIDTABFPAyAA0QVg9QND4sk3D4qn/6BfXHJ/CQGQcD0EAoAAIAAIQGIBuGTfxPId3fxztWcMjIhnTx5EBJqIAALQXABWPTwkzrlt1xL4ffj7j/NuHEQAEAAz6C2hFkwHrGcqYF9+mA0woQCNzR0VZ28vnSQAwc+3ztk3Kp5X4bqAeqcFEID6AtCxbVic/cs9Ys11O0+CfyABV++YQAISSgAjABLoLWEVCAACkPgovNEEPGl+duvkXCj8Awk4ZXtRPKU0xt0AQ0YDEIBwATj91/vEU28IB38gAG+9dxgBSCgA79w93nDfDfZhnsPbqaxczts8Klwfite1/YwAJBwB+JexcqROhOsDVv48EAE4uWNdOs9/y/Hz/AHo6z1fdPseBAABiNT3yAJ1WutBABgBsHYE4PLhyZZ2wjMHR8RvTXNawD8tgAAcF4BTHh0WT/j57tCh/noC8OxbuA4g6S8CGAE4WUDTAnyz9SIACIC1AlB7AWCzxh58fvz6gJVHxfXOl2dxuesC0LGtKM7evEes+WHj4f4wCTjvxwOMADAC0NLBR9D3mPaMACAA1grAO/bGP494yvaSeOqIf32AmyMCLgvAafftE0/5cevgD2TgGT9CABgBMOMIPqlQIAAIgJMCEOw4p/WXxDPH3fvZoIsCcOpDQ+Lcn5z8s74A6q08IwDJJ0fiFIAZAoEAIABOC0AgAmftGhHPKbsjAi4JgH+e/+xNe8Saa4//lr8V2Id9FwFAAIJ+w/ZnBAABQAAKx228o7cknjQ8Kp7vwLwCbgjAsDjzrr3iaTHO84eBP1iGACAAtoM/qD8CgAAgACcEINgpVm0viaeNHhAXzmb3QsGsC8Bp9+8XT7lxoKWr+wPAN3tGABCAoK+w/RkBQAAQgBoBCHbq0wdK4vyJbJ4WyKoArHpo5e17mwG91c8RAAQg6CNsf0YAEAAEoI4ABDv32XtGxHPL2fq1QNYEoGPrsDj7Dv/2vXLO8zeSAgQAAQj6BtufEQAEAAFoIgD+Tt6xvSiePDwmnp+RaYezJABn3L1XPO36+D/rawT7sM8QAATAdvAH9UcAEAAEIIIABDtMVm4rnAUBWP3fj0/TGwbqtJYhAAhA0B/Y/owAIAAIQAsCEOzwZwzaPe2wzQJwyiPD4pyftnb7XpkygAAgAEE/YPszAoAAIAAxBCDY8W2ddthGAVi6fa8/Ta/kn/W1KgcIAAIQ7P+2PyMACAACkEAA/A7AxmmHbROApWl6f6TuPH8jKUAAEADbwR/UHwFAABCAhAIQ7Eyr+0vivIN2/GzQFgE49cH94kkRp+ltBG2ZnyEACECwz9v+jAAgAAiAJAEIOgP/tsKmTztsugD45/lbnaZXJuQbrQsBQACCfd32ZwQAAUAAJAuA3yl09BbFuftHxfMqZt5N0FgB2FYUZ925V8nv+RtBvtFnCAACYDv4g/ojAAgAApCCAAQ7WHBb4QsMu62wiQJwfJredG7f2wjorX6GACAAwf5t+zMCgAAgACkKQNBBmDbtsEkCsGqLnGl6WwV53O8jAAhAsF/b/owAIAAIgAIBCDoKU24rbIIAdEiepjcu0Fv9fwgAAhDsz7Y/IwAIAAKgUAD8DmN52uFZffMLaBWAbUWh+va9rUK+0fcRAATAdvAH9UcAEAAEQLEABDvfqX0l4YP4wjn1FwrqEoA0p+ltBG2ZnyEACECwD9v+jAAgAAiAJgEIOo/TB0bE+ZNqRwNUC8Cqh4e03r4XAUgO7R0leet45+5xEbR/novaskAAEAAEQLMABB3gE/aOiOd6akRAlQB0bFM3Ta9MyDdaFyMAyUUAAdAH/aC/8Z8RAAQAATBEAPwd0p92+CmlMXFBytMOqxCAM+7ZJ556g/k/62sE+7DPEAAEoBqiNr9GABAABMAgAQg6k7SnHU5TAFY/oGea3jBYp7EMAUAAgv3U9mcEAAFAAAwUgKBjOTOl2wqnIQD+7Xuf+LPd4unX9os0wGvKOhEABCDYP21/RgAQAATAYAEIOhjZ0w7LFAB/mt6l2/dqnqZXlSAgAAhAsF/a/owAIAAIgAUC4Hc0p2wviaeOjAkZtxWWJQAmTdOLACQHs8wr/Ruta2hi4bI2/mlPoKu7fHEurw+CLpfdVl5YtBa+JtT9HXvd/CnR6p3Jpx1OKgCnPjQknnTrYKaH+usJBSMAyUUDAdDO/qUKIAD65AcBSChArgpAMOzoTzv8nOmDsW4kFFcATnnU3Gl66wFb9nIEAAEwA9/Ja4EAIADWjkK4LgC+CPi3FY4z7XDLArCtKM68a694miPn+RtJAwKAACRHrxlrQAAQAATAkmsAgiP/sOdg2uELI0473IoA2DJNbyNoy/wMAUAAzMB38logAAgAApABAQikwJ92+FnjzU8LRBEAf5rec27b5eR5/kbCgAAgAMnRa8YaEAAEAAHIkAAEItBs2uFGAtCx9cTtezP+e/5GkG/0GQKAAJiB7+S1QAAQAAQggwLgi8Dj0w6vnG0wVAAsn6a3EbRlfoYAIADJ0WvGGhAABAAByKgABKMB/m2FfeBXTztcKwCrH9gvnnyTmz/ra1UOEAAEwAx8J68FAoAAIAAZF4BABM4YGBHPPjHtcCAAqx4ezsw0va2CPO73EQAEIDl6zVgDAoAAIACOCEAgAv5thZ9aHBNn37FHrOE8f8sXOSIACIAZ+E5eCwQAAUAAHBMAXwT83/THPQJ2/f8hAAhAcvSasQYEAAFAABAAZOAH0WcwRAAQADPwnbwWCAACgAAgAAgAAiAaTd4j+zPmAkgObxlrQAAQAAQAAUAAEAAEQAZRLVsHAoAAIAAIAAKAACAAlsFbRnURAAQAAUAAEAAEAAGQQVTL1oEAIAAIAAKAACAACIBl8JZR3dyGmT/O5fVB0OGyj7aVFxatha8JdWc64KIIftvf6jM/A4x+1X/tzx75FQC/ApABXxPW0dk9/QqHISw0bvs4ApBQgBAABKAWzireIwAIgAnwllGH935h+lyNENQJYN1lP4AAIACxj+BbPeKv/T4jAIwAyP5pXyvr42eAMvAtZx25vDeIBKg9DdKV976EACAACEAL595VHN1HKYMRAEYA5KDXjLV05csbEQC1ApDrKb8RAUAAEAAEQOnFd60cpaf5XUYAzIC/X4tcvvJHCIBSASivXS9WIwAIAAKAACAA5rDQzZoI0d6Z9+5HAtRIQGe+cuVSQzPhSnqb68BFgFwEGGXIXvZ3OAXAKYCsmQI/B1QD/1zeG1+bnzoHAUh49O+LCwKAAMiGe5T1IQAIQNYEwN+eXL58I6MA6YpAZ3f5b5fbjs1H3ybUHQFAAKIAW/Z3EIDkAtB3aPZ9yx0hL4xI4K97xp+Q6yn3IgGpScB3TvpDmwBRm+uAACAAsuEeZX0IQHIBuHzPxMNtfX2rT+oQeaM9gcu6vQtyee8QEiBZArq9u9/yH+K0k/7ANsPXhLojAAhAFGDL/g4CkFwA3rl73L8A9ra2XbtO7hRP6iF5oyOBS3smz+/Kew8jAXIkoKvHu+5t60fPXPG3NAGiNtcBAUAAZMM9yvoQAGkCgASsoIIZC/zTAV3d3ndzee8YIhBbBGZy+cpH6v5FbYavCXVHABCAKMCW/R0EQKoA+BJwM6cD6mJC6wdd3eXf7cp7dyABLUnA0c689+XclbNPb/jHMwGiNtcBAUAAZMM9yvoQAOkCwEhAQ1Lo//CSDeXn57orH811l+/K5T0PIVghBGO5fOVHnT3eurVXeU+O9BezGb4m1B0BQACiAFv2dxCAVAQACYhEDTO+5E8i1Nk9/dyu7vLzXH6s/ez8s9ZtPHBWrL+KCRC1uQ4IAAIgG+5R1ocApCYAnA6IRRL+k5UJ2AxfE+qOACAAUYAt+zsIQKoCwEiAlTSj0i0nYAJEba4DAoAAyIZ7lPUhAKkLABLQMk34D9YlYDN8Tag7AoAARAG27O8gAEoEgNMB1hGNCreUgAkQtbkOCAACIBvuUdaHACgTAEYCWiIKX7YqAZvha0LdEQAEIAqwZX8HAVAqAIwEWEU1Khs5ARMganMdEAAEQDbco6wPAVAuAIwERKYKX7QmAZvha0LdEQAEIAqwZX8HAdAiAEiANWSjopESMAGiNtcBAUAAZMM9yvoQAG0CwOmASGThS1YkYDN8Tag7AoAARAG27O8gAFoFAAmwgm5UsmkCJkDU5jogAAiAbLhHWR8CoF0AkICmdOELxidgM3xNqDsCgABEAbbs7yAARggA1wQYTzgq2DABEyBqcx0QAARANtyjrA8BMEYAkICGhOFDoxOwGb4m1B0BQACiAFv2dxAAowQACTCaclSubgImQNTmOiAACIBsuEdZHwJgnAAgAXUpwwfGJmAzfE2o+yX7Jvwdn0eMDM68a6+IAju+078ip/N+PCB2lJJD0OV1vHP3eBr77W1tu3adZmyHT8VIoDoBEyBqcx0+MDyZRifixDoRgJVgjyo7v3XrIAKQUIBSEgB/30UCqiHDa3MTsBm+JtT9M6NlJ2CdxigHAhBfAC66fQ8CYK4AIAHmIo+aVSdgAkRtrsOtk3MIQIzhf18oEID4AvDWe4cRALMFAAmoBg2vzUzAZviaUPcD80fFE7ePIAExJAABiC8AV++YQADMFwAkwEzsUasgARMgansd/ooLAWMJEAIQTwDOu5Hz/zIuXkzxGoDa/YFrAgLg8GxWArbD14T631WeFx0xjoDTOK9u0zoRgHgC8Ff3lzj6T3j07wuEQgFgJMAs7FGbIAETAJqFOrxlz6Fa6+d9EylCAFoXAP/3/w8XPQTAPgHw+4Of8hPBgDw8G5FAFuBrwjb0zxwW53ItQEvSgwC0LgCf2HoA+EuAv4YRgGDfQAKMIB+VWErABHhmpQ7fPFThVECTo/7qUxQIQGsC8NrN+4G/JPhrFABGAmCvOQlkBb6mbAf3BYh+V0QEILoAXPSzPWK7RPjJuIjO9nUovgYgGAEInhkJMAeD7tbEFHBmqR5XH6yI1b2lYEfnuc6oAAIQTQBedcc+UShy21/ZwqFZAPx+AQlwF71mbHmWwGvSttwxPS9esHMU+NeBPzcCag7/NT/cKd794AjD/imNfBggAEiAGRh0txYmQTNrdfFvEvTJkWlx1nZGA6rP/QevGQGoLwEv/8Ve8dM9ZeCfEvw1XwNQe2DASIC7CNa75VmDronbs3PmsHjf0IQ4pcHRcABFl54RgJUCcP7Nu0TP9kOAP0XwB6cSDBkBCGQACdCLQjdLNxGYWa3TneV58erBA8EO7/wzAlAlADfsFOseGOFCPwXgN1QA/P4ACXATw/q2OquwNXW7phcWxX+Oz4hn7+D6AASgX6y5dqf4k7uGxH8PcXOfAMyqng0bAQgOCJAAfTh0r2RTQZn1eo3OHRVXlKbFGQ7/WsB1AXjB7bvFdbumGO5XeNRfLReGCgAjAe5hWN8WZx20pm9f38xhkXN0MiFXBeBZNw+KzxQ4z18NYx2vDRYAJEAfEt0q2XRAulK/n0zNiRcPjAXDgE48OycAN+wU/kQ+24b5Tb8O4NeWabgAIAFuoVjP1roCWBu2c2phUXz1YEWs6RtBAH5QdYGc7a+v7Rf+zXzu2s95/loI63xvgQAgAXqw6E6pNoDRtTrunzsiPlycEqdl/PoAF0YAnn/bbvFfg5zn1wn6emVfvmdiiyU/u+XCQHeQrHZLXYOrTdu7xTss3pzhaYazLADP+PGA+NijzNxXD74mLB+YmH1Pe6F4ExKgljmUZlACNgHR1brePDknXrgze9cHZFEA/Nv3/sW9RbF1uMLV/Zqu7o8qF0MTC5e1bdlyKhJgEJCoitoEXIWqbds9Pn9U5Ec9cU6Grg/IlgDsFK/YxO17o8LXhO8tCYDf3SIBaqFDaeYkYBsIXa/v3rkj4oPDk2JVb/Rpd00d4syKADznJ7vE1TsmOOI3/Ii/VjqWBQAJMAdI1ERtAq4D1dbtv7u8IF6z66DVvxawXQD88/wfeGgM8FsG/kAEThIAJEAteCjNjARsBSD1XhR+BteNz4rn9Nt5W2FbBWDNdcdv3/tQkZ/1BTC18XmFACABZkCJWqhLAJAeB6nNORyYOyrWj5bFEyybdthGAXjxz/aKW/fysz4bgV9b51ABQALUwYeS9CdgM/io+8ny0n/itsIdlkw7bJMAnH/zoOju5fa9tRC1+X1dAUAC9IOJGqhJAIieDNEs5LG5PC9+34Jph20QgGdczzS9NkO+Ud0bCgASoAZAlKI3gSwAj21YKTH+tMP+bYWf0Wfu9QEmC8Caa/vFa+7cL+7Zz+/5G0HU5s+aCgASoBdOlJ5+AsBzJTyzlInJ0w6bKgD+7Xuv5fa9mf91QyQBQALShxAl6EsgS7BjW+rLzCOVw+Ide8eN+tmgaQLwzJsGxacLBzMPPpuP2mXWPbIAIAH6AEXJ6SYANOtDM4vZ3Do5J15kyLTDpgjAmuuP376XaXrdmqa4JQFAAtIFEWvXk0AWIcc2NZaaiflF8W8HKuJpmm8rrF0ATkzTu5lpep0c9WhZAJAAPZCi1PQSAJaNYZnlfPxph/3bCp+q6bbCOgXguT/ZLb7WP+4k+GQOo9u8rlgCgASkByPWrD6BLAOObYsmNw95h8WbNEw7rEMAnnHjgPjoI9y+12Zwy6p7bAFAAtSDihLTSQBIRoOkCzn5txV+nsLbCqsUAH+a3jffPSwe5va9jHqcmLsgkQD43XFf3+r2QukWUyfbOrlepVv8WQ/ToQhrtTYBF8DGNkaXnGDa4SduH0n9FwNKBODafuHfvve23WXAZ+mkPbKO+GvXk1gA/F7foqmEOwqlb1sLKiqeTgLAMTocXcpqz2z60w6nLQD+NL1fZJpexKeO+EgRAMskoK0w/KF0SMJarUzAJaixra3Lzq/KC+IPUpp2ODUBuGFArHtgBPDVAV/tkbCr76UJgN/z23M64GjbtpEXWAkrKi0/AaDYOhRdzMy/PuC3dsi9rbBsAQim6X1wmGl6XYV6K9stVQD8rtme0wE3yCcJa7QyARdhxjbHk56xE9MOny1p2mGZAvCC23eLG3YxTW8rAHT9u9IFwCeAHSMBx9oKQ79rJbCotNwEgGE8GLqc2w5J0w7LEIBn3TQoPss0vZzuiHG6IxUB8LtnC0YCOgrDV8klCWuzMgGXQca2J5OfO6bnxe8lmHY4kQDcsFP81f0lUSi6dfta14/aZW5/agJghwTssRJYVFpuAkAwGQRdz2/qxLTDT48x7XAcAfCn6X3VHfvE3fuYplcmDF1cV6oC4HfThp8OaOsrXiCXJqzNugRcBxjbL0eARuaOiitK0+L03lLk+we0KgD+NL3fH+A8v4uwTmObUxcAnwYGnw5o6x16o3XAosJyEwCAcgBIjsdzfNiLPu1wVAHwz/N/iml6Oc8f4zx/I3FQIgAGS0DbttJ75NKEtVmXAOBCANJoA7dMzomLmkw73EwA/Nv3/sW9RcE0vVzn0AjkcT9TJgA+FQw8HdC2rfhx64BFheUmkEbnzzqRCr8N+LcV9qcdfk6d+QXqCYAP/j+5a0gwTS/gjwv3KP9PqQD43bZhpwPaCsUr5NKEtVmXALAG1mm3AV8Erp+YFZfunxDP7x8VHYXi0nUCJwnADTvFb9+2R7zvwRFxz34u8IsCML6TTJCUC4BhEoAAWIdr+RVOu/Nn/QhGbRsozR0Vj1QOix+VPPH1nZPiZ3uZqAeYJ4N5nPy0CIBBEoAAyOepdWus7Zx5D7BVtYHR6cNc2Cb5wrY4IHT1/2gTAEMkAAGwDtfyK6yqs6ccxKK2DSAA6o96XYV92HZrFQADJAABkM9T69ZY2ynzHlCragMIAAIQBmZVy7QLgE+LpV8HFH/ZfuK6GJXPCIB1uJZfYVWdPeUgFrVtAAFAAFTBPqwcIwSgra2to1DMqwR/UBYCIJ+n1q2xtlPmPaBW1QYQAAQgDMyqliEA/AzQOmDLrrCqzp5yEIvaNoAAIACqYB9WDgKAAMjmqXXrq+2UeQ+oVbUBBAABCAOzqmUIAAJgHbBlV1hVZ085iEVtG0AAEABVsA8rBwFAAGTz1Lr11XbKvAfUqtoAAoAAhIFZ1TIEAAGwDtiyK6yqs6ccxKK2DSAACIAq2IeVgwAgALJ5at36ajtl3gNqVW0AAUAAwsCsahkCgABYB2zZFVbV2VMOYlHbBhAABEAV7MPKQQAQANk8tW59tZ0y7wG1qjaAACAAYWBWtQwBQACsA7bsCqvq7CkHsahtAwgAAqAK9mHlIAAIgGyeWre+2k6Z94BaVRtAABCAMDCrWoYAIADWAVt2hVV19pSDWNS2AQQAAVAF+7ByEAAEQDZPrVtfbafMe0Ctqg0gAAhAGJhVLUMAEADrgC27wqo6e8pBLGrbAAKAAKiCfVg5CAACIJun1q2vtlPmPaBW1QYQAAQgDMyqliEACIB1wJZdYVWdPeUgFrVtAAFAAFTBPqwcBAABkM1T69ZX2ynzHlCragMIAAIQBmZVyxAABMA6YMuusKrOnnIQi9o2gAAgAKpgH1YOAoAAyOapdeur7ZR5D6hVtQEEAAEIA7OqZQgAAmAdsGVXWFVnTzmIRW0bQAAQAFWwDysHAUAAZPPUuvXVdsq8B9Sq2gACgACEgVnVMgQAAbAO2LIrrKqzpxzEorYNIAAIgCrYh5WDACAAsnlq3fpqO2XeA2pVbQABQADCwKxqGQKAAFgHbNkVVtXZUw5iUdsGEAAEQBXsw8pBABAA2Ty1bn21nTLvAbWqNoAAIABhYFa1DAFAAKwDtuwKq+rsKQexqG0DCAACoAr2YeUgAAiAbJ5at77aTpn3gFpVG0AAEIAwMKtahgAgANYBW3aFVXX2lINY1LYBBAABUAX7sHIQAARANk+tW19tp8x7QK2qDSAACEAYmFUtQwAQAOuALbvCqjp7ykEsatsAAoAAqIJ9WDkIAAIgm6fWra+2U+Y9oFbVBhAABCAMzKqWIQAIgHXAll1hVZ095SAWtW0AAUAAVME+rBwEAAGQzVPr1lfbKfMeUKtqAwgAAhAGZlXLEAAEwDpgy66wqs6echCL2jaAACAAqmAfVg4CgADI5ql166vtlHkPqFW1AQQAAQgDs6plCAACYB2wZVdYVWdPOYhFbRtAABAAVbAPKwcBQABk89S69dV2yrwH1KraAAKAAISBWdUyBAABsA7YsiusqrOnHMSitg0gAAiAKtiHlYMAIACyeWrd+mo7Zd4DalVtAAFAAMLArGoZAoAAWAds2RVW1dlTDmJR2wYQAARAFezDykEAEADZPLVufbWdMu8Btao2gAAgAGFgVrUMAUAArAO27Aqr6uwpB7GobQMIAAKgCvZh5SAA9grA2s/NPO2SDeXf6ewp/2lXd/lipx/5mdflNk69dO36Q2e37Ae1nTLvAbWqNoAAIABhYFa1DAGwRwAuv0ac2pX3/qyrx/tKLl8u5fKe4BGawaO5vPfpzu7pV0SSAVWdPeUgFrVtAAFAAFTBPqwcBMACARCivau7vDaX9wYBfijwG4nQJn+UpKEI1HbKvAfUqtoAAoAAhIFZ1TIEwGwBuLRn8vxcj3cf4G8Z/NVS8Bt/1GTterE6VARUdfaUg1jUtgEEAAFQBfuwchAAcwXg0h7v1bm8Nwr8E8G/WgR+nbty9ukrJKC2U+Y9oFbVBhAABCAMzKqWIQBmCkDn57zfz+XL88BfGvwDEdjZ1eV/mqMAAAofSURBVF1+0kkSoKqzpxzEorYNIAAIgCrYh5WDAJgnAJ09c8/kIj/p4A8EwH/+xevXi1XLElDbKfMeUKtqAwgAAhAGZlXLEADDBECIds75pwr/JRHo6vbWIwALgF4V6OuVgwAgAKpgH1YOAmCWAHR2ly9h2D99AfBPr/gXWC5JQL3OmeUIQtptAAFAAMLArGoZAmCOAPi/8+/Me7sQABUC4JdR+RoCwCiASBvyjdaPACAAqmAfVg4CYI4A5Lq9NwN/VfD3yynPr9t44Ky2Rh00nzEKkGYbQAAQgDAwq1qGAJgjAMfv8KcSgJTV2V15BwLAKIC2UQAEAAFQBfuwchAAcwSAK/91CEn5WwgAAoAAlABxGCCzvgwBMEMA1m2cWcPwvw4B8B5FABAABAABEFmHfdj2IQBmCEBnT/mVCIAWAZhCABAABAABQACWfxit/kVHoZhvLxSF6kdbwRAB6J5+PQKgRQAWEQAEAAFAABAA9dxfLtF1AejqLl+MAGgRAIEAIAAIAAKAACzjWP0LBAAB0CVACAACgAAgAAiAeu4vl4gAIAAIACDWBuI0f+vfaN38DJBfH4RdnKdqGRcBmnENAKcA9Az/+9LBCADioU08EAAEQBXsw8pBABAAXUfeppSLACAACACnADgFsDwgr/4FpwA4BaBLCBAABAABQAAQAPXcXy4RAUAAEABArA3Ejc7Tp/kZpwA4BRA2NK9qGacAOAWgC7ymlMsIAOKhTTwQAARAFezDykEAEABTQKyrHggAAoAAcAqAUwDLA/LqX3AKgFMACAAg1gbiNIf5G62bEQBGAMKOzFUtYwSAEQBd4DWlXEYAEA9t4oEAIACqYB9WDgKAAJgCYl31QAAQAASAUwCcAlA/8r9cIqcAOAWAAABibSBuNEyf5meMADACEHZkrmoZIwCMAOgCrynlMgKAeGgTDwQAAVAF+7ByEAAEwBQQ66oHAoAAIACcAuAUwPKAvPoXnALgFIBOAVhIc5iXdS9qA6zp2TMCwAhA2JG5qmUl7/Bb1eN+ZYm6BKCjt7ihrTD0PN2PN3xjYp0uALperj8CUDIdFNQvmxKBACAAqmAfVs7Q5JGLVuJY/RJdAtBeKAoTHudtHhWug1jX9vsCsBnAZhOwpv9dEQAEIAzMKpbtHJk9ph714SUiAAiANgHwFhb/yXRQUL9sCgoCgACogH1YGbsPzpXCcax+KQKAAGgTgKkjR14CYLMJWNP/rggAAhAGZxXLhsYXvqoe9eElIgAIgDYB8JtkeWFxwHRYUL/sSQoCgACogH1YGcVDhy8Mx7H6pQgAAqBVALyFxy4FsNkDrOl/UwQAAQiDc9rL9h2cf0A95uuXiAAgAFoFQAjRXj68uMV0YFC/bEkKAoAApA372vX7F/8NHzz8/Po4Vv8JAoAAaBUAv8l7c0dfVV5Y5J4A3BhI2X0LEAAEoBbQab8fGj98jXrENy4RAUAAtAuA30TL84+tLS8sHuNIO1tH2qb+PREABCBt4Fevf9+huQcbo1jPpwgAAmCEACxJwMLiFUgAAqBCGhAABKAa0Gm+3nNwbp8QYrUexDcuFQFAAIwRgCUJmH/sL8sLi7MqIEAZ7soGAoAApAn9YN37JhbuF0J0NMawvk8RAATAKAHwd4XJI0deVF5Y/BmAdhfQaf/tEQAEIIB0Gs+7xmbn94/Pf1Qf2qOVjAAgAMYJQNB0ywuLf3pCBI6kDQTW75ZsIAAIQCrgPzA349/oRwixKujHTH5GABAAYwUg2HGmhDjHm3+sc3r+sf8oLyzeVl5YvG/pp4P+zwd5kEGMNjBWPrx7cGx2jgcZxG8Dc7O7xmYn9h6a27F/Yv57pUNHXx70WbY8IwAIgPECYMvORD1JgARIwKYEEAAEAAGwaY+lriRAAiQgKYGOQvHTJkzLq6sOTAfsaZsOWVITZjUkQAIkQAKxEthW/Htd8DWhXAQAAYi13/CfSIAESMD6BHpLbzUBxLrqgAAgANbvw2wACZAACcRKYMuec9oLxSO6AKy7XAQAAYi13/CfSIAESCALCbQXhjfpBrGu8hEABCAL+zDbQAIkQALxEtg2/EFdANZdLgKAAMTbafhfJEACJJCFBPbtO729UBzSDWMd5SMACEAWdmG2gQRIgATiJ1AYfp8OAOsuEwFAAOLvNPxPEiABEshCAteLU9oLxTt1A1l1+QgAApCF3ZdtIAESIIFkCfQVn9xeKO5SDWGd5SEACECynYb/TQIkQAJZSWDr0IvaC8URnVBWWTYCgABkZddlO0iABEggeQKPDD+zvbf4gEoQ6yoLAUAAku8wrIEESIAEspTAfcUzOgrF7vZCcV4XnFWUiwAgAFnabdkWEiABEpCXwLbS+R2F4jXtheK0CiCrLgMBQADk7SysiQRIgASymMCWLae2FUYu7iiUPt/eW/xZ+7bio+2F4h7bH+dvGhvVNR2u6+VmcTdhm0iABEiABCxJoKu7fLHrINa1/ZY0EapJAiRAAiSQxQQQAE4BZLFds00kQAIkQAJNEkAAEIAmTYSPSYAESIAEspgAAoAAZLFds00kQAIkQAJNEkAAEIAmTYSPSYAESIAEspgAAoAAZLFds00kQAIkQAJNEkAAEIAmTYSPSYAESIAEspgAAoAAZLFds00kQAIkQAJNEkAAEIAmTYSPSYAESIAEspgAAoAAZLFds00kQAIkQAJNEkAAEIAmTYSPSYAESIAEspgAAoAAZLFds00kQAIkQAJNEkAAEIAmTYSPSYAESIAEspgAAoAAZLFds00kQAIkQAJNEkAAEIAmTYSPSYAESIAEspgAAoAAZLFds00kQAIkQAJNEkAAEIAmTYSPSYAESIAEsphAV37mdbm8Pgg6XPbhLLYntokESIAESMCSBHIbp17qMISFxm0/YEkToZokQAIkQAJZTGDdxgNn5fLeMY0g1AlhbWV39nj3ZrE9sU0kQAIkQAIWJZDLV7YiAKpPg5R7LGoiVJUESIAESCCLCXR1e+sRALUC0Jmv/GEW2xLbRAIkQAIkYFECnd3Tr0AAlArAgfXrRYdFTYSqkgAJkAAJZDWBXN77BRKgSAK6Kx/Najtiu0iABEiABCxL4JL89Mtyee83SEDaElAprr1KnGFZ86C6JEACJEACWU6gq8f7CgKQqgAc6+yuvCPLbYhtIwESIAESsDCBy68Rp+bylTuRgHQkoLPb+4yFzYIqkwAJkAAJuJDAuo0za3J5bycSIF0CruXCPxf2ILaRBEiABCxO4NL1k0/s7PZ+ggRIkYBjnT2VPPC3eIeg6iRAAiTgUgKvXy9W5fLep7vy3hwiEE8EuvLeEOf8Xdpr2FYSIAESyFACnT1zz8zlK1/L5cvziEBkETjQma987L3rxekZagpsCgmQAAmQgIsJvG396Jn+0Wxn3vt2Lu89mst7k/xscEkIjuTy3oFc3vt1rqe84dLPVV4Tdbj//wO+l/C3ZWaVlwAAAABJRU5ErkJggg==;" vertex="1" parent="1">
          <mxGeometry x="1414.5" y="904.5" width="141" height="141" as="geometry" />
        </mxCell>
        <mxCell id="yI9EZNTHulhPJnTRhF_V-88" value="" style="html=1;verticalLabelPosition=bottom;align=center;labelBackgroundColor=#ffffff;verticalAlign=top;strokeWidth=2;strokeColor=#0080F0;shadow=0;dashed=0;shape=mxgraph.ios7.icons.repeat;pointerEvents=1;rotation=90;" vertex="1" parent="1">
          <mxGeometry x="1435" y="780" width="100" height="90" as="geometry" />
        </mxCell>
        <mxCell id="yI9EZNTHulhPJnTRhF_V-91" value="Mint" style="text;html=1;align=center;verticalAlign=middle;whiteSpace=wrap;rounded=0;" vertex="1" parent="1">
          <mxGeometry x="1315" y="920" width="60" height="30" as="geometry" />
        </mxCell>
        <mxCell id="yI9EZNTHulhPJnTRhF_V-92" value="Burn" style="text;html=1;align=center;verticalAlign=middle;whiteSpace=wrap;rounded=0;" vertex="1" parent="1">
          <mxGeometry x="1315" y="990" width="60" height="30" as="geometry" />
        </mxCell>
        <mxCell id="yI9EZNTHulhPJnTRhF_V-94" style="edgeStyle=orthogonalEdgeStyle;rounded=0;orthogonalLoop=1;jettySize=auto;html=1;entryX=1;entryY=0.5;entryDx=0;entryDy=0;" edge="1" parent="1" source="yI9EZNTHulhPJnTRhF_V-78" target="yI9EZNTHulhPJnTRhF_V-87">
          <mxGeometry relative="1" as="geometry">
            <Array as="points">
              <mxPoint x="1899" y="975" />
            </Array>
          </mxGeometry>
        </mxCell>
        <mxCell id="yI9EZNTHulhPJnTRhF_V-97" style="edgeStyle=orthogonalEdgeStyle;rounded=0;orthogonalLoop=1;jettySize=auto;html=1;" edge="1" parent="1" source="yI9EZNTHulhPJnTRhF_V-95">
          <mxGeometry relative="1" as="geometry">
            <mxPoint x="1175" y="980" as="targetPoint" />
          </mxGeometry>
        </mxCell>
        <mxCell id="yI9EZNTHulhPJnTRhF_V-95" value="Claim" style="rounded=1;whiteSpace=wrap;html=1;" vertex="1" parent="1">
          <mxGeometry x="1003" y="950" width="120" height="60" as="geometry" />
        </mxCell>
        <mxCell id="yI9EZNTHulhPJnTRhF_V-99" style="edgeStyle=orthogonalEdgeStyle;rounded=0;orthogonalLoop=1;jettySize=auto;html=1;entryX=0;entryY=0.5;entryDx=0;entryDy=0;" edge="1" parent="1" source="yI9EZNTHulhPJnTRhF_V-98" target="yI9EZNTHulhPJnTRhF_V-95">
          <mxGeometry relative="1" as="geometry" />
        </mxCell>
        <mxCell id="yI9EZNTHulhPJnTRhF_V-98" value="Crypto Wallet" style="image;aspect=fixed;perimeter=ellipsePerimeter;html=1;align=center;shadow=0;dashed=0;fontColor=#4277BB;labelBackgroundColor=default;fontSize=12;spacingTop=3;image=img/lib/ibm/blockchain/wallet.svg;" vertex="1" parent="1">
          <mxGeometry x="826" y="933" width="94" height="94" as="geometry" />
        </mxCell>
        <mxCell id="yI9EZNTHulhPJnTRhF_V-105" style="edgeStyle=orthogonalEdgeStyle;rounded=0;orthogonalLoop=1;jettySize=auto;html=1;entryX=1;entryY=0.5;entryDx=0;entryDy=0;" edge="1" parent="1" source="yI9EZNTHulhPJnTRhF_V-102" target="yI9EZNTHulhPJnTRhF_V-87">
          <mxGeometry relative="1" as="geometry">
            <Array as="points">
              <mxPoint x="1680" y="975" />
            </Array>
          </mxGeometry>
        </mxCell>
        <mxCell id="yI9EZNTHulhPJnTRhF_V-106" value="Merkle verification &amp;amp;&amp;nbsp;" style="edgeLabel;html=1;align=center;verticalAlign=middle;resizable=0;points=[];" vertex="1" connectable="0" parent="yI9EZNTHulhPJnTRhF_V-105">
          <mxGeometry x="-0.4164" y="1" relative="1" as="geometry">
            <mxPoint as="offset" />
          </mxGeometry>
        </mxCell>
        <mxCell id="yI9EZNTHulhPJnTRhF_V-102" value="Chainlink Oracle" style="verticalLabelPosition=bottom;html=1;verticalAlign=top;strokeWidth=1;align=center;outlineConnect=0;dashed=0;outlineConnect=0;shape=mxgraph.aws3d.oracleDbServer;fillColor=#ffffff;strokeColor=#5E5E5E;aspect=fixed;" vertex="1" parent="1">
          <mxGeometry x="1615" y="625" width="129.48" height="140" as="geometry" />
        </mxCell>
        <mxCell id="yI9EZNTHulhPJnTRhF_V-108" style="edgeStyle=orthogonalEdgeStyle;rounded=0;orthogonalLoop=1;jettySize=auto;html=1;entryX=0;entryY=0.5;entryDx=0;entryDy=0;" edge="1" parent="1" source="yI9EZNTHulhPJnTRhF_V-107" target="yI9EZNTHulhPJnTRhF_V-67">
          <mxGeometry relative="1" as="geometry">
            <Array as="points">
              <mxPoint x="1055" y="695" />
            </Array>
          </mxGeometry>
        </mxCell>
        <mxCell id="yI9EZNTHulhPJnTRhF_V-107" value="Withdraw" style="rounded=1;whiteSpace=wrap;html=1;" vertex="1" parent="1">
          <mxGeometry x="1003" y="880" width="120" height="60" as="geometry" />
        </mxCell>
      </root>
    </mxGraphModel>
  </diagram>
</mxfile>
